<?xml version="1.0" standalone="no"?>
<!DOCTYPE svg PUBLIC "-//W3C//DTD SVG 1.1//EN" "http://www.w3.org/Graphics/SVG/1.1/DTD/svg11.dtd" >
<svg>
<metadata>
Created by FontForge 20110222 at Thu Jun 19 05:49:45 2014
 By Orthosie Webhosting
Copyright (c) 1987, 1991, 1992, 1993, 2002 Adobe Systems Incorporated.  All Rights Reserved.
</metadata>
<defs>
<font id="FuturaStdLightCondensed" horiz-adv-x="416" >
  <font-face 
    font-family="FuturaStdLightCondensed"
    font-weight="300"
    font-stretch="condensed"
    units-per-em="1000"
    panose-1="2 11 4 6 2 2 4 3 2 4"
    ascent="825"
    descent="-175"
    x-height="513"
    cap-height="754"
    bbox="-125 -221 896 961"
    underline-thickness="50"
    underline-position="-50"
    unicode-range="U+0020-FB02"
  />
<missing-glyph horiz-adv-x="500" 
d="M0 0v700h500v-700h-500zM250 395l170 255h-340zM280 350l170 -255v510zM80 50h340l-170 255zM50 605v-510l170 255z" />
    <glyph glyph-name="fi" unicode="fi" horiz-adv-x="363" 
d="M205 513v-60h-85v-453h-65v453h-55v60h55v152q0 71 22 107t74 36q32 0 57 -11v-71q-28 22 -47 22q-25 0 -33 -20t-8 -62v-153h85zM318 513v-513h-65v513h65zM334 665q0 -20 -14 -34.5t-34 -14.5t-34.5 14.5t-14.5 34.5t14.5 34t34.5 14t34 -14.5t14 -33.5z" />
    <glyph glyph-name="fl" unicode="fl" horiz-adv-x="363" 
d="M318 800v-800h-65v800h65zM205 513v-60h-85v-453h-65v453h-55v60h55v151q0 144 96 144q32 0 57 -11v-71q-28 22 -47 22q-26 0 -33.5 -19t-7.5 -64v-152h85z" />
    <glyph glyph-name=".notdef" horiz-adv-x="500" 
d="M0 0v700h500v-700h-500zM250 395l170 255h-340zM280 350l170 -255v510zM80 50h340l-170 255zM50 605v-510l170 255z" />
    <glyph glyph-name=".null" horiz-adv-x="0" 
 />
    <glyph glyph-name="nonmarkingreturn" horiz-adv-x="333" 
 />
    <glyph glyph-name="space" unicode=" " horiz-adv-x="208" 
 />
    <glyph glyph-name="exclam" unicode="!" horiz-adv-x="343" 
d="M138 189v565h67v-565h-67zM172 94q21 0 36 -15t15 -36t-15 -36t-36 -15t-36 15t-15 36t15 36t36 15z" />
    <glyph glyph-name="quotedbl" unicode="&#x22;" horiz-adv-x="309" 
d="M64 528l-8 226h75l-8 -226h-59zM187 528l-8 226h75l-8 -226h-59z" />
    <glyph glyph-name="numbersign" unicode="#" 
d="M35 0l64 249h-100l15 51h97l34 131h-99l15 51h96l65 262h48l-66 -262h70l65 262h47l-65 -262h96l-15 -51h-92l-34 -131h94l-15 -51h-91l-62 -249h-50l64 249h-70l-64 -249h-47zM158 300h70l34 131h-69z" />
    <glyph glyph-name="dollar" unicode="$" 
d="M177 -94v94q-83 11 -136 65l43 49q62 -50 112 -50q55 0 88 39t33 93q0 25 -7.5 46t-17 35.5t-29.5 30t-33.5 23.5t-40.5 23q-79 45 -119 91t-40 121q0 73 37.5 123t109.5 63v88h49v-86q66 -4 126 -45l-36 -53q-55 34 -103 34q-53 0 -84 -33t-31 -85q0 -41 22 -74
t42.5 -47t67.5 -40q8 -5 12 -7q33 -19 53.5 -33.5t43.5 -39t34.5 -58t11.5 -76.5q0 -73 -43.5 -128t-115.5 -67v-96h-49z" />
    <glyph glyph-name="percent" unicode="%" horiz-adv-x="521" 
d="M404 376q32 0 52 -18.5t28 -53t10 -59.5t2 -62t-2 -62t-10 -59.5t-28 -53t-52 -18.5t-52 18.5t-28 53t-10 59.5t-2 62t2 62t10 59.5t28 53t52 18.5zM404 338q-50 0 -50 -155t50 -155t50 155t-50 155zM117 764q32 0 52 -18.5t28 -53t10 -59.5t2 -62t-2 -62t-10 -59.5
t-28 -53t-52 -18.5t-52 18.5t-28 53t-10 59.5t-2 62t2 62t10 59.5t28 53t52 18.5zM117 726q-50 0 -50 -155t50 -155t50 155t-50 155zM441 754l-326 -754h-34l328 754h32z" />
    <glyph glyph-name="ampersand" unicode="&#x26;" horiz-adv-x="529" 
d="M352 98l-138 253q-75 -79 -75 -154q0 -53 31 -96.5t81 -47.5q55 2 101 45zM402 0l-22 41q-56 -51 -126 -51q-82 0 -132 62t-50 146q0 118 111 213l-3 6q-66 121 -66 187q0 63 43 106.5t103 43.5q61 0 100 -40.5t39 -104.5q0 -40 -21.5 -80.5t-45 -65.5t-60.5 -58l-6 -5
l130 -250l47 58l5 7l47 -46l-67 -77l47 -92h-73zM230 461l4 -7q98 77 98 159q0 32 -20 55t-50 23q-37 0 -59 -25t-22 -63q0 -50 49 -142z" />
    <glyph glyph-name="quotesingle" unicode="'" horiz-adv-x="224" 
d="M82 528l-8 226h75l-8 -226h-59z" />
    <glyph glyph-name="parenleft" unicode="(" horiz-adv-x="300" 
d="M269 -67l-50 -21q-128 207 -122 426q-6 217 122 426l50 -21q-122 -197 -116 -405q-6 -208 116 -405z" />
    <glyph glyph-name="parenright" unicode=")" horiz-adv-x="300" 
d="M81 -88l-50 21q122 197 116 405q6 208 -116 405l50 21q128 -209 122 -426q6 -219 -122 -426z" />
    <glyph glyph-name="asterisk" unicode="*" horiz-adv-x="415" 
d="M187 603v151h40v-151l144 47l13 -38l-144 -47l89 -122l-33 -24l-89 122l-88 -122l-33 24l89 122l-144 47l13 38z" />
    <glyph glyph-name="plus" unicode="+" horiz-adv-x="444" 
d="M197 231h-176v51h176v219h51v-219h176v-51h-176v-220h-51v220z" />
    <glyph glyph-name="comma" unicode="," horiz-adv-x="208" 
d="M168 62l-100 -223l-48 23l77 232z" />
    <glyph glyph-name="hyphen" unicode="-" horiz-adv-x="156" 
d="M0 280v79h156v-79h-156z" />
    <glyph glyph-name="period" unicode="." horiz-adv-x="208" 
d="M104 94q21 0 36 -15t15 -36t-15 -36t-36 -15t-36 15t-15 36t15 36t36 15z" />
    <glyph glyph-name="slash" unicode="/" horiz-adv-x="464" 
d="M483 800l-440 -1016h-61l441 1016h60z" />
    <glyph glyph-name="zero" unicode="0" 
d="M208 764q39 0 69 -17.5t48 -51t29 -68t15.5 -85.5t6 -84t1.5 -81t-1.5 -81t-6 -84t-15.5 -85.5t-29 -68t-48 -51t-69 -17.5t-69 17.5t-48 51t-29 68t-15.5 85.5t-6 84t-1.5 81t1.5 81t6 84t15.5 85.5t29 68t48 51t69 17.5zM208 700q-34 0 -56 -29t-31 -84.5t-11.5 -99.5
t-2.5 -110t2.5 -110t11.5 -99.5t31 -84.5t56 -29t56 29t31 84.5t11.5 99.5t2.5 110t-2.5 110t-11.5 99.5t-31 84.5t-56 29z" />
    <glyph glyph-name="one" unicode="1" 
d="M253 754v-754h-68v688h-99l15 66h152z" />
    <glyph glyph-name="two" unicode="2" 
d="M351 62v-62h-309l150 308q3 7 18 37t20.5 41.5t18 39t18 44.5t12.5 40.5t10 44.5t3 41q0 44 -19.5 74t-63.5 30q-87 0 -87 -136v-16h-68q0 216 151 216q76 0 115.5 -48t39.5 -125q0 -50 -19 -111.5t-35 -94.5t-51 -102l-109 -221h205z" />
    <glyph glyph-name="three" unicode="3" 
d="M153 381h-20v64h12q80 0 109 28.5t29 112.5q0 114 -80 114q-26 0 -42.5 -10.5t-23.5 -30t-9.5 -37.5t-2.5 -44h-68q-3 76 33 131t109 55q77 0 114.5 -47t37.5 -125q0 -137 -86 -175q96 -37 96 -212q0 -215 -153 -215q-160 0 -160 184l1 33h67v-22q2 -131 90 -131
q87 0 87 163q0 81 -31 123t-109 41z" />
    <glyph glyph-name="four" unicode="4" 
d="M310 754v-491h56v-60h-56v-203h-68v203h-200v71l202 480h66zM242 263v229l10 151h-3l-141 -380h134z" />
    <glyph glyph-name="five" unicode="5" 
d="M338 754v-62h-168l-28 -234l45 4q87 0 130 -71t43 -165q0 -44 -9.5 -84t-29 -75t-55 -56t-81.5 -21q-75 0 -130 43l19 69q59 -44 109 -44q40 0 66 30t34.5 65.5t8.5 73.5q0 70 -29 118.5t-96 48.5q-50 0 -100 -30l47 390h224z" />
    <glyph glyph-name="six" unicode="6" 
d="M299 754l-148 -351l2 -2q35 27 75 27q39 0 67 -22.5t42 -58.5t20 -71t6 -71q0 -215 -149 -215q-46 0 -79 18.5t-50.5 51.5t-25 69.5t-7.5 79.5q0 126 65 283l109 262h73zM120 212q0 -26 3.5 -49.5t12.5 -50t28.5 -42.5t48.5 -16q82 0 82 161q0 152 -88 152
q-35 0 -55.5 -28.5t-26 -59.5t-5.5 -67z" />
    <glyph glyph-name="seven" unicode="7" 
d="M57 754h310l-232 -754h-74l213 692h-217v62z" />
    <glyph glyph-name="eight" unicode="8" 
d="M207 54q91 0 91 167q0 165 -89 165q-92 0 -92 -171q0 -161 90 -161zM281 417q85 -44 85 -203q0 -43 -7.5 -80.5t-25 -71t-50 -53t-78.5 -19.5q-42 0 -73.5 18.5t-49 49.5t-25.5 66.5t-8 75.5q0 180 95 217q-78 46 -78 163q0 78 37.5 131t112.5 53q72 0 108 -52t36 -127
q0 -59 -17 -100t-62 -68zM213 450q79 0 79 125t-81 125q-77 0 -77 -116q0 -134 79 -134z" />
    <glyph glyph-name="nine" unicode="9" 
d="M116 0l147 351l-2 2q-34 -26 -74 -26q-44 0 -73.5 26t-41.5 67t-16 71t-4 59q0 110 40.5 162t108.5 52q46 0 79 -18.5t50.5 -51.5t25 -69.5t7.5 -79.5q0 -121 -65 -283l-109 -262h-73zM202 700q-28 0 -46 -15.5t-25 -44.5t-9 -50t-2 -50q0 -152 88 -152q35 0 55.5 28.5
t26 59.5t5.5 66q0 25 -3.5 49t-12.5 50.5t-29 42.5t-48 16z" />
    <glyph glyph-name="colon" unicode=":" horiz-adv-x="208" 
d="M104 521q21 0 36 -15t15 -36t-15 -36t-36 -15t-36 15t-15 36t15 36t36 15zM104 94q21 0 36 -15t15 -36t-15 -36t-36 -15t-36 15t-15 36t15 36t36 15z" />
    <glyph glyph-name="semicolon" unicode=";" horiz-adv-x="208" 
d="M157 62l-100 -223l-48 23l77 232zM105 521q21 0 36 -15t15 -36t-15 -36t-36 -15t-36 15t-15 36t15 36t36 15z" />
    <glyph glyph-name="less" unicode="&#x3c;" horiz-adv-x="444" 
d="M21 234v44l403 234v-56l-349 -195v-5l349 -201v-56z" />
    <glyph glyph-name="equal" unicode="=" horiz-adv-x="444" 
d="M424 371v-51h-403v51h403zM424 193v-51h-403v51h403z" />
    <glyph glyph-name="greater" unicode="&#x3e;" horiz-adv-x="444" 
d="M424 277v-44l-403 -234v56l349 195v5l-349 201v56z" />
    <glyph glyph-name="question" unicode="?" horiz-adv-x="436" 
d="M150 189v243h22q38 0 56 3.5t31.5 20t16.5 45t3 84.5q0 22 -0.5 35.5t-4 31t-9.5 27.5t-17.5 17t-28.5 7q-21 0 -35 -10.5t-19.5 -30t-7 -35t-1.5 -37.5v-27h-65v27q0 41 4.5 69t17.5 54t40 38.5t69 12.5q38 0 63.5 -13.5t38 -38.5t17.5 -52.5t5 -63.5q0 -28 -0.5 -43.5
t-3 -43t-7 -43t-14 -36t-23 -32t-35 -19.5t-48.5 -8v-182h-65zM134 43q0 21 15 36t36 15t36 -15t15 -36t-15 -36t-36 -15t-36 15t-15 36z" />
    <glyph glyph-name="at" unicode="@" horiz-adv-x="800" 
d="M432 561q-53 0 -100 -43.5t-72 -101t-25 -106.5q0 -53 28.5 -84t69.5 -31q47 0 82 25.5t48 57.5l54 157q16 48 -9 87t-76 39zM552 540l15 49h56l-106 -309q-18 -52 -11 -68q8 -18 40 -18q64 0 123 87.5t59 169.5q0 116 -92.5 188t-216.5 72q-143 0 -244.5 -101
t-101.5 -237q-6 -134 98 -232t250 -98q82 0 160.5 37.5t128.5 100.5h54q-50 -88 -144 -139.5t-199 -51.5q-179 0 -293 113.5t-108 277.5q0 159 118.5 271t283.5 112q146 0 252.5 -92t106.5 -231q0 -61 -30.5 -128t-89 -116t-126.5 -49q-31 0 -55 13.5t-25 39.5
q-56 -53 -137 -53q-65 0 -101.5 44t-36.5 111q0 71 30 140t89.5 117.5t133.5 48.5q39 0 71.5 -18t47.5 -51z" />
    <glyph glyph-name="A" unicode="A" horiz-adv-x="365" 
d="M214 754l151 -754h-75l-28 155h-160l-27 -155h-75l148 754h66zM114 216h137l-50 289q-3 15 -19 154h-4q-2 -18 -8.5 -71.5t-11.5 -82.5z" />
    <glyph glyph-name="B" unicode="B" horiz-adv-x="398" 
d="M60 754h98q35 0 57.5 -2.5t48.5 -13t40.5 -30t24.5 -55t10 -86.5q0 -64 -18 -106.5t-70 -70.5q62 -20 84 -65.5t22 -117.5q0 -117 -45.5 -162t-160.5 -45h-91v754zM149 694h-19v-273h19h10q22 0 33 1t28 8t25.5 21t15 42t6.5 69q0 86 -23.5 109t-94.5 23zM151 361h-21
v-301h19q78 0 107 30.5t29 111.5q0 91 -31.5 125t-102.5 34z" />
    <glyph glyph-name="C" unicode="C" horiz-adv-x="367" 
d="M337 92v-71q-45 -31 -96 -31t-89 25.5t-59 63t-34 89.5t-17 94.5t-4 87.5q0 36 0.5 62t5 72.5t12 80.5t23.5 74t37.5 65t55.5 42.5t76 17.5q57 0 89 -24v-77q-49 33 -88 33q-139 0 -139 -317q0 -28 0.5 -46t3 -55t7 -63t14.5 -58t24 -51.5t35.5 -33.5t49.5 -14
q45 0 93 34z" />
    <glyph glyph-name="D" unicode="D" horiz-adv-x="412" 
d="M60 0v754h76q51 0 81 -4.5t64 -25t51.5 -59.5t29.5 -111t12 -177q0 -114 -10 -184t-37.5 -114.5t-71 -61.5t-114.5 -17h-81zM130 690v-626h20q40 0 67.5 12.5t44.5 34t25.5 63t11.5 86.5t3 117q0 81 -4 132.5t-13.5 89t-29 56.5t-45.5 27t-68 8h-12z" />
    <glyph glyph-name="E" unicode="E" horiz-adv-x="338" 
d="M297 754v-64h-167v-266h162v-64h-162v-296h167v-64h-237v754h237z" />
    <glyph glyph-name="F" unicode="F" horiz-adv-x="343" 
d="M301 754v-64h-171v-266h162v-64h-162v-360h-70v754h241z" />
    <glyph glyph-name="G" unicode="G" horiz-adv-x="412" 
d="M202 334v64h172v-139q0 -37 -1.5 -62t-6 -60t-15 -58t-28 -45t-45.5 -33t-66 -11q-39 0 -68 12.5t-48 40t-30.5 60t-17.5 82.5t-8 96.5t-2 113.5q0 77 6 134.5t24 115t56 88.5t95 31q121 0 154 -142l-69 -27q-18 101 -82 101q-37 0 -61 -26t-34.5 -74t-13.5 -91t-3 -104
q0 -137 12.5 -213t34.5 -103t61 -27q56 0 71 44.5t15 174.5v57h-102z" />
    <glyph glyph-name="H" unicode="H" horiz-adv-x="433" 
d="M373 754v-754h-70v389h-173v-389h-70v754h70v-301h173v301h70z" />
    <glyph glyph-name="I" unicode="I" horiz-adv-x="190" 
d="M130 754v-754h-70v754h70z" />
    <glyph glyph-name="J" unicode="J" horiz-adv-x="262" 
d="M202 754v-613q0 -82 -19 -116.5t-89 -34.5q-43 0 -82 19v73q37 -33 69 -33q31 0 41 21t10 58v626h70z" />
    <glyph glyph-name="K" unicode="K" horiz-adv-x="369" 
d="M360 754l-169 -359l170 -395h-79l-150 380h-2v-380h-70v754h70v-342h2l150 342h78z" />
    <glyph glyph-name="L" unicode="L" horiz-adv-x="294" 
d="M130 754v-690h164v-64h-234v754h70z" />
    <glyph glyph-name="M" unicode="M" horiz-adv-x="562" 
d="M447 754l92 -754h-69l-53 556q-2 25 -4 71h-4q-1 -9 -6.5 -64.5t-10.5 -84.5l-82 -478h-57l-83 556q0 3 -9 71h-3q-6 -137 -7 -148l-60 -479h-68l106 754h60l85 -562q2 -11 3.5 -23.5t3 -28t2.5 -23.5h3q2 15 4.5 41t5 48t5.5 41l86 507h60z" />
    <glyph glyph-name="N" unicode="N" horiz-adv-x="435" 
d="M374 754v-754h-61l-170 507q-6 18 -15 53.5t-11 43.5h-4q8 -131 8 -146v-458h-61v754h61l173 -524q9 -26 23 -78h3q0 8 -3.5 44.5t-3.5 55.5v502h61z" />
    <glyph glyph-name="O" unicode="O" horiz-adv-x="446" 
d="M223 764q41 0 72.5 -16.5t51 -47.5t32.5 -66.5t19 -83.5t8 -86t2 -87q0 -37 -1 -66.5t-5 -71.5t-11.5 -74t-21.5 -66.5t-33 -57t-48 -37t-65 -14.5q-59 0 -98 34t-57 95.5t-24 120.5t-6 137q0 64 3.5 114.5t15.5 103.5t31.5 88.5t54 58t80.5 22.5zM223 696q-26 1 -46 -12
t-31.5 -40t-19.5 -55t-11 -69.5t-4 -71.5t-1 -71q0 -50 1.5 -85t7.5 -83.5t17.5 -78t33.5 -51t53 -21.5t53 21.5t33.5 51t17.5 78t7.5 83.5t1.5 85t-1.5 85t-7.5 83.5t-17.5 78t-33.5 51t-53 21.5z" />
    <glyph glyph-name="P" unicode="P" horiz-adv-x="358" 
d="M130 0h-70v754h78q39 0 63.5 -2.5t54 -13t46.5 -31t28.5 -58t11.5 -91.5q0 -109 -43.5 -153t-150.5 -44h-18v-361zM130 690v-265h27q70 0 90.5 27.5t22.5 105.5q0 78 -26 105t-100 27h-14z" />
    <glyph glyph-name="Q" unicode="Q" horiz-adv-x="446" 
d="M271 73l-64 104l55 36l52 -81q22 88 22 239q0 54 -1.5 90.5t-7.5 85t-17.5 78t-33.5 50.5t-53 21q-40 0 -64 -26.5t-36.5 -97t-12.5 -195.5q0 -126 14 -197.5t37.5 -96.5t61.5 -25q31 0 48 15zM408 383q0 -222 -51 -318l54 -85l-54 -36l-46 71q-30 -25 -90 -25
q-42 0 -73.5 17.5t-57 59.5t-39 120t-13.5 190q0 196 43 291.5t140 95.5q37 0 66.5 -15t49 -38t33.5 -58t21 -67t11 -73.5t5 -68.5t1 -61z" />
    <glyph glyph-name="R" unicode="R" horiz-adv-x="381" 
d="M130 0h-70v754h75q32 0 52.5 -1.5t47 -7t43.5 -18.5t32.5 -33.5t23 -53.5t7.5 -78q0 -40 -5.5 -71t-20 -60t-44 -45.5t-72.5 -17.5l167 -368h-74l-160 369h-2v-369zM130 690v-264h25q71 0 92.5 27.5t21.5 105.5q0 44 -6.5 70.5t-23.5 39.5t-37.5 17t-57.5 4h-14z" />
    <glyph glyph-name="S" unicode="S" horiz-adv-x="389" 
d="M322 724v-89q-54 61 -111 61q-50 0 -79.5 -35.5t-29.5 -86.5q0 -31 9.5 -56.5t32.5 -48t38 -34t49 -34.5q31 -21 48.5 -36t38.5 -39.5t31 -54.5t10 -67q0 -87 -52 -150.5t-137 -63.5q-69 0 -119 38v91q57 -61 122 -61q53 0 84 39.5t30 93.5q0 29 -8.5 53t-27.5 44.5
t-35 33t-44 32.5q-9 6 -13 9q-30 21 -48 36t-39.5 39.5t-31.5 55.5t-10 70q0 81 47 140.5t126 59.5q61 0 119 -40z" />
    <glyph glyph-name="T" unicode="T" horiz-adv-x="311" 
d="M304 754v-64h-113v-690h-70v690h-113v64h296z" />
    <glyph glyph-name="U" unicode="U" horiz-adv-x="430" 
d="M373 754v-515q0 -49 -2 -80.5t-11 -66.5t-25.5 -55t-46.5 -33.5t-73 -13.5q-44 0 -74.5 14t-46.5 34t-24.5 56t-10.5 66t-2 79v515h70v-511q0 -104 15.5 -144.5t72.5 -40.5q56 0 72 40.5t16 144.5v511h70z" />
    <glyph glyph-name="V" unicode="V" horiz-adv-x="389" 
d="M377 754l-152 -754h-62l-152 754h72l99 -549q2 -8 4 -25t4.5 -41.5t3.5 -35.5h4q8 89 10 102l98 549h71z" />
    <glyph glyph-name="W" unicode="W" horiz-adv-x="605" 
d="M587 754l-133 -754h-64l-76 508q-2 12 -3.5 32.5t-3 48.5t-2.5 42h-4q-1 -13 -5 -61t-6 -62l-88 -508h-64l-120 754h72l67 -504q2 -16 4 -35t4.5 -41.5t3.5 -35.5h4q2 13 6.5 52t7.5 60l87 504h60l72 -504q2 -18 7 -55.5t8 -56.5h4q10 96 13 112l78 504h71z" />
    <glyph glyph-name="X" unicode="X" horiz-adv-x="402" 
d="M380 754l-141 -371l141 -383h-75l-102 321h-4q-4 -30 -34 -121l-67 -200h-75l143 383l-143 371h75l101 -319h4q10 57 39 140l63 179h75z" />
    <glyph glyph-name="Y" unicode="Y" horiz-adv-x="392" 
d="M373 754l-138 -424v-330h-70v330l-146 424h75l75 -254q4 -13 13.5 -47.5t15.5 -53.5h4q19 94 22 105l74 250h75z" />
    <glyph glyph-name="Z" unicode="Z" horiz-adv-x="335" 
d="M316 754l-211 -690h190v-64h-276l209 690h-189v64h277z" />
    <glyph glyph-name="bracketleft" unicode="[" horiz-adv-x="300" 
d="M128 -116v870h163v-42h-107v-786h107v-42h-163z" />
    <glyph glyph-name="backslash" unicode="\" horiz-adv-x="222" 
d="M315 -216l-440 1016h60l441 -1016h-61z" />
    <glyph glyph-name="bracketright" unicode="]" horiz-adv-x="300" 
d="M172 754v-870h-163v42h107v786h-107v42h163z" />
    <glyph glyph-name="asciicircum" unicode="^" horiz-adv-x="444" 
d="M201 754h41l135 -410h-47l-109 335h-2l-106 -335h-47z" />
    <glyph glyph-name="underscore" unicode="_" horiz-adv-x="500" 
d="M0 -75h500v-50h-500v50z" />
    <glyph glyph-name="grave" unicode="`" horiz-adv-x="280" 
d="M99 750l109 -135l-32 -30l-130 117z" />
    <glyph glyph-name="a" unicode="a" horiz-adv-x="349" 
d="M245 265q0 47 -2.5 79.5t-9.5 63t-22 45.5t-38 15q-26 0 -42 -17.5t-23 -51.5t-9 -62.5t-2 -69.5q0 -61 4 -104t10 -66t17 -35t19.5 -14.5t22.5 -2.5q46 0 60.5 47t14.5 173zM304 513v-513h-65v40h-2q-31 -48 -85 -48q-44 0 -69 20.5t-39 80t-14 169.5q0 36 1 60t4.5 58
t12 55.5t22 43t36 32t52.5 10.5q48 0 79 -43h2v35h65z" />
    <glyph glyph-name="b" unicode="b" horiz-adv-x="349" 
d="M179 45q41 0 57 46.5t16 175.5q0 100 -15.5 150.5t-60.5 50.5q-74 0 -72 -186v-11q0 -113 10 -154q17 -72 65 -72zM45 0v800h65v-322h2q28 43 80 43q42 0 69.5 -22.5t39 -65.5t15 -80t3.5 -91q0 -58 -3.5 -98.5t-15 -83.5t-37.5 -65.5t-66 -22.5q-54 0 -85 48h-2v-40h-65
z" />
    <glyph glyph-name="c" unicode="c" horiz-adv-x="278" 
d="M251 501v-75q-32 34 -62 34q-29 0 -49.5 -22.5t-28.5 -59t-11 -65t-3 -58.5q0 -25 3.5 -54t11.5 -65t27 -59.5t46 -23.5q34 0 64 46h2v-81q-31 -26 -74 -26q-42 0 -72.5 26.5t-45.5 68.5t-22 81.5t-7 77.5q0 34 3 66.5t12.5 72t25 68.5t44 48.5t65.5 19.5q39 0 71 -20z
" />
    <glyph glyph-name="d" unicode="d" horiz-adv-x="349" 
d="M245 265q0 65 -5 106t-21.5 69t-45.5 28q-76 0 -76 -201q0 -3 -0.5 -20t0 -27.5t1 -31t2.5 -34.5t5.5 -32t9 -30.5t13 -24t18.5 -17t24 -5.5q25 0 40.5 14t23 46.5t9.5 67t2 92.5zM239 0v40h-2q-31 -48 -85 -48q-38 0 -63.5 21.5t-37.5 62.5t-16.5 83.5t-4.5 102.5
q0 47 2.5 81t10 70t21 58t37.5 36t57 14q48 0 79 -43h2v322h65v-800h-65z" />
    <glyph glyph-name="e" unicode="e" horiz-adv-x="343" 
d="M98 298h149l-1 9q-1 21 -1.5 29t-3 31.5t-7 35.5t-12 27.5t-20 22.5t-28.5 7q-22 0 -38 -18.5t-23.5 -46t-11 -52t-3.5 -45.5zM313 243h-216v-15q0 -25 3 -50t10.5 -55.5t24.5 -50t42 -19.5q20 0 34 12.5t20 33t8.5 38.5t2.5 37h67q-1 -44 -11.5 -82.5t-40.5 -69
t-74 -30.5q-153 0 -153 263q0 42 5.5 82t19.5 84.5t44.5 72t74.5 27.5q42 0 71.5 -25t43 -66t19 -78.5t5.5 -77.5v-31z" />
    <glyph glyph-name="f" unicode="f" horiz-adv-x="208" 
d="M205 513v-60h-85v-453h-65v453h-55v60h55v151q0 144 96 144q32 0 57 -11v-71q-28 22 -47 22q-25 0 -33 -19.5t-8 -62.5v-153h85z" />
    <glyph glyph-name="g" unicode="g" horiz-adv-x="354" 
d="M97 248q0 -22 0.5 -34.5t2.5 -40t7 -45t13.5 -36.5t23 -29t34.5 -10q46 0 59 53.5t13 159.5q0 43 -2.5 72.5t-9.5 62.5t-23.5 50t-41.5 17q-26 0 -41 -15t-25 -64.5t-10 -140.5zM309 513v-532q0 -36 -1.5 -57t-8.5 -48.5t-20.5 -42.5t-39.5 -26t-64 -11q-66 0 -99 37
t-33 105v19h64v-9q0 -91 69 -91q20 0 33 7t20 15t10 26t3.5 27.5t0.5 31.5v12v60q-32 -36 -83 -36q-31 0 -54 12.5t-36.5 37.5t-22 49t-12 60t-4.5 57t-1 52q0 253 129 253q53 0 83 -43h2v35h65z" />
    <glyph glyph-name="h" unicode="h" horiz-adv-x="355" 
d="M110 800v-328q42 49 101 49q33 0 54.5 -13t30.5 -38.5t11.5 -47t2.5 -55.5v-367h-65v356q0 63 -11.5 87.5t-46.5 24.5q-26 0 -43 -12.5t-23.5 -36t-8.5 -41.5t-2 -45v-333h-65v800h65z" />
    <glyph glyph-name="i" unicode="i" horiz-adv-x="155" 
d="M110 513v-513h-65v513h65zM126 665q0 -20 -14 -34.5t-34 -14.5t-34.5 14.5t-14.5 34.5t14.5 34t34.5 14t34 -14.5t14 -33.5z" />
    <glyph glyph-name="j" unicode="j" horiz-adv-x="155" 
d="M110 513v-702h-65v702h65zM126 665q0 -20 -14 -34.5t-34 -14.5t-34.5 14.5t-14.5 34.5t14.5 34t34.5 14t34 -14.5t14 -33.5z" />
    <glyph glyph-name="k" unicode="k" horiz-adv-x="351" 
d="M110 800v-495h2l125 208h74l-153 -230l193 -283h-81l-158 246h-2v-246h-65v800h65z" />
    <glyph glyph-name="l" unicode="l" horiz-adv-x="155" 
d="M110 800v-800h-65v800h65z" />
    <glyph glyph-name="m" unicode="m" horiz-adv-x="559" 
d="M110 513v-43h2q39 51 97 51q68 0 95 -61q43 61 106 61q28 0 47.5 -9t30.5 -22t17 -35t7.5 -40.5t1.5 -45.5v-369h-65v367q0 30 -3 49t-16.5 35.5t-38.5 16.5q-27 0 -44.5 -13.5t-24 -39.5t-8.5 -46.5t-2 -52.5v-316h-65v366q0 31 -2.5 49.5t-15.5 35.5t-38 17
q-28 0 -45.5 -15t-24.5 -43.5t-9 -50t-2 -54.5v-305h-65v513h65z" />
    <glyph glyph-name="n" unicode="n" horiz-adv-x="355" 
d="M110 513v-41q42 49 101 49q32 0 53.5 -13.5t30.5 -38.5t12 -47.5t3 -54.5v-367h-65v360q0 55 -10.5 81.5t-47.5 26.5q-26 0 -43 -12.5t-23.5 -36t-8.5 -41.5t-2 -45v-333h-65v513h65z" />
    <glyph glyph-name="o" unicode="o" horiz-adv-x="355" 
d="M177 521q147 0 147 -264q0 -265 -147 -265t-147 265q0 264 147 264zM177 460q-80 0 -80 -203q0 -204 80 -204t80 204q0 203 -80 203z" />
    <glyph glyph-name="p" unicode="p" horiz-adv-x="349" 
d="M179 45q44 0 58.5 47t14.5 170q0 41 -1.5 67.5t-8 63.5t-23.5 56t-43 19q-20 0 -34 -12.5t-21 -30t-11 -47t-5 -51.5t-1 -56q0 -47 2 -79t8.5 -69.5t23 -57.5t41.5 -20zM110 513v-35h2q31 43 80 43q29 0 51 -11.5t35 -33t22 -45.5t12.5 -56.5t5 -57t1.5 -55.5
q0 -37 -1 -61t-4 -59.5t-11.5 -58.5t-21 -46t-34 -34t-50.5 -11q-54 0 -85 48h-2v-236h-65v709h65z" />
    <glyph glyph-name="q" unicode="q" horiz-adv-x="349" 
d="M170 45q25 0 40.5 15t22.5 47t9.5 67t2.5 91q0 98 -15.5 150.5t-56.5 52.5q-43 0 -59.5 -50t-16.5 -151q0 -53 2 -86t9 -68t22.5 -51.5t39.5 -16.5zM304 513v-709h-65v236h-2q-31 -48 -85 -48q-28 0 -49.5 11.5t-34.5 34t-21 46t-11.5 58.5t-4.5 59.5t-1 60.5
q0 53 3.5 90.5t15.5 80.5t39.5 65.5t69.5 22.5q48 0 79 -43h2v35h65z" />
    <glyph glyph-name="r" unicode="r" horiz-adv-x="205" 
d="M110 513v-68h2q30 77 85 76v-76l-13 1q-32 0 -49 -21.5t-21 -49.5t-4 -76v-299h-65v513h65z" />
    <glyph glyph-name="s" unicode="s" horiz-adv-x="278" 
d="M241 488v-80h-2q-37 52 -85 52q-29 0 -46.5 -19.5t-17.5 -48.5q0 -8 1 -15.5t5 -15t6.5 -13t9 -13t9.5 -11t12.5 -12t12 -11t14 -11.5t13.5 -11q40 -33 61.5 -64t21.5 -76q0 -63 -38.5 -105t-101.5 -42q-49 0 -93 35v76q48 -50 91 -50q33 0 54 22.5t21 55.5q0 24 -14 48
t-26.5 36t-42.5 38q-26 23 -41 39t-28.5 42.5t-13.5 55.5q0 58 35.5 94.5t92.5 36.5q47 0 90 -33z" />
    <glyph glyph-name="t" unicode="t" horiz-adv-x="210" 
d="M222 513v-60h-85v-453h-65v453h-55v60h55v140h65v-140h85z" />
    <glyph glyph-name="u" unicode="u" horiz-adv-x="350" 
d="M41 513h65v-322q0 -32 2 -52t8 -42t20.5 -33t37.5 -11q24 0 38.5 10.5t21 33.5t8.5 42t2 52v322h65v-377q0 -67 -33.5 -105.5t-100.5 -38.5q-66 0 -100 38.5t-34 105.5v377z" />
    <glyph glyph-name="v" unicode="v" horiz-adv-x="316" 
d="M309 513l-114 -513h-70l-117 513h66l66 -321q4 -16 10 -48l9 -48h4q8 67 14 96l65 321h67z" />
    <glyph glyph-name="w" unicode="w" horiz-adv-x="504" 
d="M493 513l-113 -513h-67l-59 372q-2 10 -3 29.5t-2 25.5h-3q-7 -77 -10 -93l-55 -334h-66l-104 513h66l49 -303q4 -23 12 -67t9 -49h4q14 111 15 116l50 303h66l54 -355q2 -10 5 -32t4 -32h3q2 11 4.5 31.5t5 37t5.5 31.5l64 319h66z" />
    <glyph glyph-name="x" unicode="x" horiz-adv-x="335" 
d="M320 513l-115 -251l115 -262h-72l-53 135q-22 56 -27 86h-4q-5 -35 -25 -87l-51 -134h-73l118 262l-106 251h72l42 -114q22 -62 30 -104h4q21 85 30 107l43 111h72z" />
    <glyph glyph-name="y" unicode="y" horiz-adv-x="332" 
d="M324 513l-177 -709h-68l51 210l-122 499h66l86 -414h3l27 132l66 282h68z" />
    <glyph glyph-name="z" unicode="z" horiz-adv-x="331" 
d="M282 60v-60h-267l203 453h-175v60h273l-208 -453h174z" />
    <glyph glyph-name="braceleft" unicode="{" horiz-adv-x="300" 
d="M277 -79h-22q-70 0 -97.5 32t-27.5 113v148q0 23 -1 33t-7.5 25t-20.5 26q-18 15 -53 23v33q35 8 53 23q14 11 20.5 26t7.5 25t1 33v148q0 81 27.5 113t97.5 32h22v-33q-55 -4 -73 -28t-18 -79v-141q0 -55 -16 -86.5t-63 -47.5v-3q47 -16 63 -47.5t16 -86.5v-141
q0 -55 18 -79t73 -28v-33z" />
    <glyph glyph-name="bar" unicode="|" horiz-adv-x="222" 
d="M85 786h51v-1000h-51v1000z" />
    <glyph glyph-name="braceright" unicode="}" horiz-adv-x="300" 
d="M172 214v-148q0 -81 -27.5 -113t-97.5 -32h-22v33q55 4 73 28t18 79v141q0 55 16 86.5t63 47.5v3q-47 16 -63 47.5t-16 86.5v141q0 55 -18 79t-73 28v33h22q70 0 97.5 -32t27.5 -113v-148q0 -23 1 -33t7.5 -25t20.5 -26q18 -15 51 -23v-33q-33 -8 -51 -23
q-14 -11 -20.5 -26t-7.5 -25t-1 -33z" />
    <glyph glyph-name="asciitilde" unicode="~" horiz-adv-x="444" 
d="M54 187l-33 35q52 86 114 86q32 0 94 -26q64 -26 82 -26q42 0 80 61l33 -34q-50 -81 -113 -81q-22 0 -108 32q-50 19 -68 19q-19 0 -36.5 -12.5t-24 -22t-20.5 -31.5z" />
    <glyph glyph-name="uni00A0" unicode="&#xa0;" horiz-adv-x="208" 
 />
    <glyph glyph-name="exclamdown" unicode="&#xa1;" horiz-adv-x="343" 
d="M205 372v-565h-67v565h67zM222 518q0 -21 -15 -36t-36 -15t-36 15t-15 36t15 36t36 15t36 -15t15 -36z" />
    <glyph glyph-name="cent" unicode="&#xa2;" 
d="M256 739v-88q31 -5 50 -18v-75q-32 34 -62 34q-29 0 -49 -22.5t-28 -59t-11 -65t-3 -58.5q0 -25 3 -54t11.5 -65t27 -59.5t45.5 -23.5q34 0 64 46h2v-81q-19 -16 -50 -23v-99h-49v99q-122 38 -122 251q0 240 122 271v90h49z" />
    <glyph glyph-name="sterling" unicode="&#xa3;" 
d="M150 303h-105v47h81q-77 124 -77 219q0 84 46.5 139.5t127.5 55.5q67 0 110 -50t45 -120l-68 -13q-1 51 -24.5 85t-67.5 34q-51 0 -76 -36.5t-25 -90.5q0 -17 2 -33.5t8.5 -35.5t10.5 -31t15 -33.5t15 -29t17.5 -32t16.5 -28.5h118v-47h-94q20 -45 20 -83q0 -74 -42 -126
q8 -4 25 -18t32.5 -23.5t28.5 -9.5q34 1 41 60l59 -18q-3 -44 -30 -75t-68 -31q-8 0 -15 1t-15 4t-12 4t-13.5 6.5t-11.5 7t-13 8.5t-12 8q-2 1 -16 11t-24.5 15t-18.5 5q-34 0 -49 -48l-58 35q15 34 41 57t58 23q6 0 16 -2q29 44 29 91q0 56 -28 98z" />
    <glyph glyph-name="currency" unicode="&#xa4;" 
d="M-13 104l39 38q-43 62 -43 133q0 76 43 136l-39 39l47 47l40 -38q59 44 138 44q68 0 132 -44l39 38l47 -47l-39 -39q43 -61 43 -140q0 -66 -43 -129l39 -38l-47 -48l-39 39q-62 -45 -140 -45q-67 0 -130 45l-40 -39zM212 444q-71 1 -120 -47.5t-50 -121.5
q1 -67 49.5 -115.5t115.5 -50.5q69 2 118 50t50 119q-2 67 -49.5 117t-113.5 49z" />
    <glyph glyph-name="yen" unicode="&#xa5;" 
d="M382 754l-93 -286h108v-43h-123l-24 -77h147v-43h-151v-305h-68v305h-160v43h154l-25 77h-129v43h114l-99 286h73l104 -355h2l28 124l69 231h73z" />
    <glyph glyph-name="brokenbar" unicode="&#xa6;" horiz-adv-x="222" 
d="M85 661h51v-250h-51v250zM85 161h51v-250h-51v250z" />
    <glyph glyph-name="section" unicode="&#xa7;" horiz-adv-x="415" 
d="M305 268q0 119 -73 152l-21 7q-100 -5 -100 -148q0 -101 83 -141l28 -13q83 16 83 143zM205 -203q-61 0 -99.5 40.5t-40.5 101.5h65q5 -83 78 -83q37 0 59 26t22 64q0 49 -28 78t-80 52q-73 32 -104 81.5t-31 119.5q0 71 31 122t96 62v2l-21 11q-83 43 -83 139
q0 65 40 108t105 43q57 0 97 -37.5t41 -93.5h-65q-4 32 -24 52t-52 20q-39 0 -60.5 -27.5t-21.5 -66.5q0 -42 25.5 -68t73.5 -52q77 -42 109.5 -89t32.5 -120q0 -71 -24.5 -121.5t-74.5 -67.5v-2q78 -44 78 -145q0 -63 -41 -106t-103 -43z" />
    <glyph glyph-name="dieresis" unicode="&#xa8;" horiz-adv-x="280" 
d="M24 663q0 19 13.5 32.5t32.5 13.5t32.5 -13.5t13.5 -32.5t-13.5 -32.5t-32.5 -13.5t-32.5 13.5t-13.5 32.5zM164 663q0 19 13.5 32.5t32.5 13.5t32.5 -13.5t13.5 -32.5t-13.5 -32.5t-32.5 -13.5t-32.5 13.5t-13.5 32.5z" />
    <glyph glyph-name="copyright" unicode="&#xa9;" horiz-adv-x="800" 
d="M401 -10q-151 0 -258 113.5t-107 274.5q0 159 107 272.5t258 113.5t257.5 -113.5t106.5 -272.5q0 -161 -106.5 -274.5t-257.5 -113.5zM401 43q132 0 221.5 96.5t89.5 238.5q0 137 -90 235t-221 98t-221.5 -98t-90.5 -235q0 -142 89.5 -238.5t222.5 -96.5zM527 307h59
q-7 -67 -55.5 -108.5t-113.5 -41.5q-89 0 -145.5 64t-56.5 160q0 97 54.5 159.5t145.5 62.5q66 0 113 -39t58 -107h-59q-7 44 -38 68.5t-73 24.5q-66 0 -104 -48t-38 -120q0 -69 39.5 -120.5t103.5 -51.5q41 0 73 27t37 70z" />
    <glyph glyph-name="ordfeminine" unicode="&#xaa;" horiz-adv-x="300" 
d="M239 759v-333h-48v20h-2q-17 -25 -51 -25q-26 0 -43.5 14t-25.5 41t-10.5 53.5t-2.5 64.5q0 34 2.5 58.5t10 53t26 43.5t46.5 15q31 0 50 -22v17h48zM195 598q0 90 -19 114q-10 12 -25 12q-45 0 -45 -118q0 -79 8.5 -112t34.5 -33q11 0 19.5 5.5t13.5 16.5t8 21t4 27
l1.5 25.5t0 24.5t-0.5 17z" />
    <glyph glyph-name="guillemotleft" unicode="&#xab;" horiz-adv-x="376" 
d="M338 511l-107 -189l107 -194l-44 -25l-122 219l122 213zM211 511l-107 -189l107 -194l-43 -25l-123 219l123 213z" />
    <glyph glyph-name="logicalnot" unicode="&#xac;" horiz-adv-x="444" 
d="M21 371h403v-267h-51v216h-352v51z" />
    <glyph glyph-name="uni00AD" unicode="&#xad;" horiz-adv-x="156" 
d="M0 280v79h156v-79h-156z" />
    <glyph glyph-name="registered" unicode="&#xae;" horiz-adv-x="800" 
d="M401 -10q-151 0 -258 113.5t-107 274.5q0 159 107 272.5t258 113.5t257.5 -113.5t106.5 -272.5q0 -161 -106.5 -274.5t-257.5 -113.5zM401 43q132 0 221.5 96.5t89.5 238.5q0 137 -90 235t-221 98t-221.5 -98t-90.5 -235q0 -142 89.5 -238.5t222.5 -96.5zM452 357
l129 -196h-67l-122 196h-86v-196h-57v433h186q69 0 104 -22q23 -13 35.5 -38.5t12.5 -54.5q0 -61 -37 -90.5t-98 -31.5zM306 402h75q84 0 115.5 14.5t31.5 63.5q0 69 -105 69h-117v-147z" />
    <glyph glyph-name="macron" unicode="&#xaf;" horiz-adv-x="280" 
d="M13 635v53h255v-53h-255z" />
    <glyph glyph-name="degree" unicode="&#xb0;" horiz-adv-x="400" 
d="M200 764q62 0 106 -44t44 -106t-44 -106t-106 -44t-106 44t-44 106t44 106t106 44zM200 724q-45 0 -77.5 -32.5t-32.5 -77.5t32.5 -77.5t77.5 -32.5t77.5 32.5t32.5 77.5t-32.5 77.5t-77.5 32.5z" />
    <glyph glyph-name="plusminus" unicode="&#xb1;" horiz-adv-x="444" 
d="M197 281h-176v51h176v169h51v-169h176v-51h-176v-170h-51v170zM424 62v-51h-403v51h403z" />
    <glyph glyph-name="twosuperior" unicode="&#xb2;" horiz-adv-x="250" 
d="M223 306h-201l98 185q60 113 60 173q0 59 -49 59q-52 0 -52 -79v-9h-49q0 129 98 129q50 0 75.5 -28.5t25.5 -74.5q0 -19 -3 -37t-12.5 -42t-13.5 -33.5t-19 -40t-16 -32.5l-70 -127h128v-43z" />
    <glyph glyph-name="threesuperior" unicode="&#xb3;" horiz-adv-x="250" 
d="M127 300q-104 0 -104 110v20h49v-13q2 -76 54 -76q51 0 51 95q0 48 -19 73t-67 24h-13v42h8q49 0 67 16.5t18 66.5q0 65 -47 65q-28 0 -37 -19t-9 -51h-49q-2 45 21.5 78t70.5 33q50 0 74.5 -28t24.5 -75q0 -82 -56 -105q62 -21 62 -127q0 -129 -99 -129z" />
    <glyph glyph-name="acute" unicode="&#xb4;" horiz-adv-x="280" 
d="M72 615l109 135l53 -48l-130 -117z" />
    <glyph glyph-name="mu" unicode="&#xb5;" horiz-adv-x="350" 
d="M243 513h65v-367q0 -34 -2.5 -55.5t-11.5 -47t-30.5 -38.5t-54.5 -13q-59 0 -101 49v-237h-65v709h65v-333q0 -27 2 -45t8.5 -41.5t23.5 -36t43 -12.5q36 0 47 23t11 89v356z" />
    <glyph glyph-name="paragraph" unicode="&#xb6;" horiz-adv-x="415" 
d="M217 -193v607h-12q-57 0 -98.5 15.5t-62.5 42t-30 53.5t-9 57q0 82 45.5 127t158.5 45h180v-947h-46v905h-80v-905h-46z" />
    <glyph glyph-name="periodcentered" unicode="&#xb7;" horiz-adv-x="208" 
d="M103 303q22 0 37 -15t15 -36t-15 -36t-37 -15q-21 0 -35.5 15t-14.5 36t14.5 36t35.5 15z" />
    <glyph glyph-name="cedilla" unicode="&#xb8;" horiz-adv-x="280" 
d="M193 -70l-95 -151l-41 23l83 157z" />
    <glyph glyph-name="onesuperior" unicode="&#xb9;" horiz-adv-x="250" 
d="M155 758v-452h-49v411h-63l10 41h102z" />
    <glyph glyph-name="ordmasculine" unicode="&#xba;" horiz-adv-x="300" 
d="M153 421q-101 0 -101 172q0 171 101 171q96 0 96 -171q0 -172 -96 -172zM152 466q47 0 47 127q0 126 -47 126q-50 0 -50 -126q0 -127 50 -127z" />
    <glyph glyph-name="guillemotright" unicode="&#xbb;" horiz-adv-x="376" 
d="M38 511l43 24l123 -213l-123 -219l-43 25l107 194zM165 511l44 24l122 -213l-122 -219l-44 25l108 194z" />
    <glyph glyph-name="onequarter" unicode="&#xbc;" horiz-adv-x="622" 
d="M546 452v-292h37v-39h-37v-121h-49v121h-134v43l129 288h54zM497 160v135q0 15 3 49t4 42h-2l-92 -226h87zM485 754l-326 -754h-42l327 754h41zM147 758v-452h-49v411h-63l10 41h102z" />
    <glyph glyph-name="onehalf" unicode="&#xbd;" horiz-adv-x="622" 
d="M155 758v-452h-49v411h-63l10 41h102zM583 0h-201l98 185q60 113 60 173q0 59 -49 59q-52 0 -52 -79v-9h-49q0 129 98 129q50 0 75.5 -28.5t25.5 -74.5q0 -19 -3 -37t-12.5 -42t-13.5 -33.5t-19 -40t-16 -32.5l-70 -127h128v-43zM475 754l-326 -754h-42l327 754h41z" />
    <glyph glyph-name="threequarters" unicode="&#xbe;" horiz-adv-x="622" 
d="M497 160v135q6 70 7 91h-2l-92 -226h87zM525 754l-326 -754h-42l327 754h41zM546 0h-49v121h-134v43l129 288h54v-292h37v-39h-37v-121zM147 300q-104 0 -104 110v20h49v-13q2 -76 54 -76q51 0 51 95q0 48 -19 73t-67 24h-13v42h8q49 0 67 16.5t18 66.5q0 65 -47 65
q-28 0 -37 -19t-9 -51h-49q-2 45 21.5 78t70.5 33q50 0 74.5 -28t24.5 -75q0 -82 -56 -105q62 -21 62 -127q0 -129 -99 -129z" />
    <glyph glyph-name="questiondown" unicode="&#xbf;" horiz-adv-x="436" 
d="M288 372v-243h-22q-38 0 -56 -3.5t-31.5 -20t-16.5 -45t-3 -84.5q0 -22 0.5 -35.5t4 -31t9.5 -27.5t17.5 -17t28.5 -7q21 0 35 10.5t19.5 30t7 35t1.5 37.5v27h65v-27q0 -41 -4.5 -69t-17.5 -54t-40 -38.5t-69 -12.5q-38 0 -63.5 13.5t-38 38.5t-17.5 52.5t-5 63.5
q0 28 0.5 43.5t3 43t7 43t14 36t23 32t35 19.5t48.5 8v182h65zM302 518q0 -21 -15 -36t-36 -15t-36 15t-15 36t15 36t36 15t36 -15t15 -36z" />
    <glyph glyph-name="Agrave" unicode="&#xc0;" horiz-adv-x="365" 
d="M214 754l151 -754h-75l-28 155h-160l-27 -155h-75l148 754h66zM114 216h137l-50 289q-3 15 -19 154h-4q-2 -18 -8.5 -71.5t-11.5 -82.5zM142 961l109 -135l-32 -30l-130 117z" />
    <glyph glyph-name="Aacute" unicode="&#xc1;" horiz-adv-x="365" 
d="M214 754l151 -754h-75l-28 155h-160l-27 -155h-75l148 754h66zM114 216h137l-50 289q-3 15 -19 154h-4q-2 -18 -8.5 -71.5t-11.5 -82.5zM115 826l109 135l53 -48l-130 -117z" />
    <glyph glyph-name="Acircumflex" unicode="&#xc2;" horiz-adv-x="365" 
d="M214 754l151 -754h-75l-28 155h-160l-27 -155h-75l148 754h66zM114 216h137l-50 289q-3 15 -19 154h-4q-2 -18 -8.5 -71.5t-11.5 -82.5zM181 954l127 -122l-37 -36l-90 86l-89 -86l-34 36z" />
    <glyph glyph-name="Atilde" unicode="&#xc3;" horiz-adv-x="365" 
d="M214 754l151 -754h-75l-28 155h-160l-27 -155h-75l148 754h66zM114 216h137l-50 289q-3 15 -19 154h-4q-2 -18 -8.5 -71.5t-11.5 -82.5zM111 833h-58q2 32 24 56.5t57 24.5q17 0 52 -18t44 -18q12 0 19 10t6 21h59q-2 -28 -22.5 -54.5t-54.5 -26.5q-19 0 -57 19
q-32 19 -45 19q-24 0 -24 -33z" />
    <glyph glyph-name="Adieresis" unicode="&#xc4;" horiz-adv-x="365" 
d="M214 754l151 -754h-75l-28 155h-160l-27 -155h-75l148 754h66zM114 216h137l-50 289q-3 15 -19 154h-4q-2 -18 -8.5 -71.5t-11.5 -82.5zM67 874q0 19 13.5 32.5t32.5 13.5t32.5 -13.5t13.5 -32.5t-13.5 -32.5t-32.5 -13.5t-32.5 13.5t-13.5 32.5zM207 874q0 19 13.5 32.5
t32.5 13.5t32.5 -13.5t13.5 -32.5t-13.5 -32.5t-32.5 -13.5t-32.5 13.5t-13.5 32.5z" />
    <glyph glyph-name="Aring" unicode="&#xc5;" horiz-adv-x="365" 
d="M214 754l151 -754h-75l-28 155h-160l-27 -155h-75l148 754h66zM114 216h137l-50 289q-3 15 -19 154h-4q-2 -18 -8.5 -71.5t-11.5 -82.5zM184 951q38 0 64 -26.5t26 -63.5q0 -38 -26.5 -64.5t-63.5 -26.5q-38 0 -64.5 27t-26.5 64t26.5 63.5t64.5 26.5zM184 906
q-19 0 -32.5 -13t-13.5 -32t13.5 -32.5t32.5 -13.5t32 13.5t13 32.5t-13 32t-32 13z" />
    <glyph glyph-name="AE" unicode="&#xc6;" horiz-adv-x="531" 
d="M400 754l11 -64h-167l50 -266h156l12 -64h-156l56 -296h159l10 -64h-233l-26 155h-171l-26 -155h-75l152 754h248zM113 216h149l-56 334q-2 12 -13 124h-3q-3 -21 -11 -62.5t-11 -61.5z" />
    <glyph glyph-name="Ccedilla" unicode="&#xc7;" horiz-adv-x="367" 
d="M337 92v-71q-45 -31 -96 -31t-89 25.5t-59 63t-34 89.5t-17 94.5t-4 87.5q0 36 0.5 62t5 72.5t12 80.5t23.5 74t37.5 65t55.5 42.5t76 17.5q57 0 89 -24v-77q-49 33 -88 33q-139 0 -139 -317q0 -28 0.5 -46t3 -55t7 -63t14.5 -58t24 -51.5t35.5 -33.5t49.5 -14
q45 0 93 34zM257 -70l-95 -151l-41 23l83 157z" />
    <glyph glyph-name="Egrave" unicode="&#xc8;" horiz-adv-x="338" 
d="M297 754v-64h-167v-266h162v-64h-162v-296h167v-64h-237v754h237zM128 961l109 -135l-32 -30l-130 117z" />
    <glyph glyph-name="Eacute" unicode="&#xc9;" horiz-adv-x="338" 
d="M297 754v-64h-167v-266h162v-64h-162v-296h167v-64h-237v754h237zM131 826l109 135l53 -48l-130 -117z" />
    <glyph glyph-name="Ecircumflex" unicode="&#xca;" horiz-adv-x="338" 
d="M297 754v-64h-167v-266h162v-64h-162v-296h167v-64h-237v754h237zM167 954l127 -122l-37 -36l-90 86l-89 -86l-34 36z" />
    <glyph glyph-name="Edieresis" unicode="&#xcb;" horiz-adv-x="338" 
d="M297 754v-64h-167v-266h162v-64h-162v-296h167v-64h-237v754h237zM59 874q0 19 13.5 32.5t32.5 13.5t32.5 -13.5t13.5 -32.5t-13.5 -32.5t-32.5 -13.5t-32.5 13.5t-13.5 32.5zM199 874q0 19 13.5 32.5t32.5 13.5t32.5 -13.5t13.5 -32.5t-13.5 -32.5t-32.5 -13.5
t-32.5 13.5t-13.5 32.5z" />
    <glyph glyph-name="Igrave" unicode="&#xcc;" horiz-adv-x="190" 
d="M130 754v-754h-70v754h70zM54 961l109 -135l-32 -30l-130 117z" />
    <glyph glyph-name="Iacute" unicode="&#xcd;" horiz-adv-x="190" 
d="M130 754v-754h-70v754h70zM27 826l109 135l53 -48l-130 -117z" />
    <glyph glyph-name="Icircumflex" unicode="&#xce;" horiz-adv-x="190" 
d="M130 754v-754h-70v754h70zM93 954l127 -122l-37 -36l-90 86l-89 -86l-34 36z" />
    <glyph glyph-name="Idieresis" unicode="&#xcf;" horiz-adv-x="190" 
d="M130 754v-754h-70v754h70zM-21 874q0 19 13.5 32.5t32.5 13.5t32.5 -13.5t13.5 -32.5t-13.5 -32.5t-32.5 -13.5t-32.5 13.5t-13.5 32.5zM119 874q0 19 13.5 32.5t32.5 13.5t32.5 -13.5t13.5 -32.5t-13.5 -32.5t-32.5 -13.5t-32.5 13.5t-13.5 32.5z" />
    <glyph glyph-name="Eth" unicode="&#xd0;" horiz-adv-x="412" 
d="M60 360h-72v64h72v330h76q51 0 81 -4.5t64 -24.5t51.5 -58.5t29.5 -108.5t12 -173q0 -156 -20 -236.5t-69 -114.5t-144 -34h-81v360zM130 424h68v-64h-68v-296h20q24 0 44 5.5t35 13t26.5 22t19 26.5t12.5 34t8 35.5t4.5 39.5t2 39t0.5 41v38q0 87 -4 142t-13.5 94.5
t-29 59t-45.5 28t-68 8.5h-12v-266z" />
    <glyph glyph-name="Ntilde" unicode="&#xd1;" horiz-adv-x="435" 
d="M374 754v-754h-61l-170 507q-6 18 -15 53.5t-11 43.5h-4q8 -131 8 -146v-458h-61v754h61l173 -524q9 -26 23 -78h3q0 8 -3.5 44.5t-3.5 55.5v502h61zM146 833h-58q2 32 24 56.5t57 24.5q17 0 52 -18t44 -18q12 0 19 10t6 21h59q-2 -28 -22.5 -54.5t-54.5 -26.5
q-19 0 -57 19q-32 19 -45 19q-24 0 -24 -33z" />
    <glyph glyph-name="Ograve" unicode="&#xd2;" horiz-adv-x="446" 
d="M223 764q41 0 72.5 -16.5t51 -47.5t32.5 -66.5t19 -83.5t8 -86t2 -87q0 -37 -1 -66.5t-5 -71.5t-11.5 -74t-21.5 -66.5t-33 -57t-48 -37t-65 -14.5q-59 0 -98 34t-57 95.5t-24 120.5t-6 137q0 64 3.5 114.5t15.5 103.5t31.5 88.5t54 58t80.5 22.5zM223 696q-26 1 -46 -12
t-31.5 -40t-19.5 -55t-11 -69.5t-4 -71.5t-1 -71q0 -50 1.5 -85t7.5 -83.5t17.5 -78t33.5 -51t53 -21.5t53 21.5t33.5 51t17.5 78t7.5 83.5t1.5 85t-1.5 85t-7.5 83.5t-17.5 78t-33.5 51t-53 21.5zM167 961l109 -135l-32 -30l-130 117z" />
    <glyph glyph-name="Oacute" unicode="&#xd3;" horiz-adv-x="446" 
d="M223 764q41 0 72.5 -16.5t51 -47.5t32.5 -66.5t19 -83.5t8 -86t2 -87q0 -37 -1 -66.5t-5 -71.5t-11.5 -74t-21.5 -66.5t-33 -57t-48 -37t-65 -14.5q-59 0 -98 34t-57 95.5t-24 120.5t-6 137q0 64 3.5 114.5t15.5 103.5t31.5 88.5t54 58t80.5 22.5zM223 696q-26 1 -46 -12
t-31.5 -40t-19.5 -55t-11 -69.5t-4 -71.5t-1 -71q0 -50 1.5 -85t7.5 -83.5t17.5 -78t33.5 -51t53 -21.5t53 21.5t33.5 51t17.5 78t7.5 83.5t1.5 85t-1.5 85t-7.5 83.5t-17.5 78t-33.5 51t-53 21.5zM170 826l109 135l53 -48l-130 -117z" />
    <glyph glyph-name="Ocircumflex" unicode="&#xd4;" horiz-adv-x="446" 
d="M223 764q41 0 72.5 -16.5t51 -47.5t32.5 -66.5t19 -83.5t8 -86t2 -87q0 -37 -1 -66.5t-5 -71.5t-11.5 -74t-21.5 -66.5t-33 -57t-48 -37t-65 -14.5q-59 0 -98 34t-57 95.5t-24 120.5t-6 137q0 64 3.5 114.5t15.5 103.5t31.5 88.5t54 58t80.5 22.5zM223 696q-26 1 -46 -12
t-31.5 -40t-19.5 -55t-11 -69.5t-4 -71.5t-1 -71q0 -50 1.5 -85t7.5 -83.5t17.5 -78t33.5 -51t53 -21.5t53 21.5t33.5 51t17.5 78t7.5 83.5t1.5 85t-1.5 85t-7.5 83.5t-17.5 78t-33.5 51t-53 21.5zM221 954l127 -122l-37 -36l-90 86l-89 -86l-34 36z" />
    <glyph glyph-name="Otilde" unicode="&#xd5;" horiz-adv-x="446" 
d="M223 764q41 0 72.5 -16.5t51 -47.5t32.5 -66.5t19 -83.5t8 -86t2 -87q0 -37 -1 -66.5t-5 -71.5t-11.5 -74t-21.5 -66.5t-33 -57t-48 -37t-65 -14.5q-59 0 -98 34t-57 95.5t-24 120.5t-6 137q0 64 3.5 114.5t15.5 103.5t31.5 88.5t54 58t80.5 22.5zM223 696q-26 1 -46 -12
t-31.5 -40t-19.5 -55t-11 -69.5t-4 -71.5t-1 -71q0 -50 1.5 -85t7.5 -83.5t17.5 -78t33.5 -51t53 -21.5t53 21.5t33.5 51t17.5 78t7.5 83.5t1.5 85t-1.5 85t-7.5 83.5t-17.5 78t-33.5 51t-53 21.5zM151 833h-58q2 32 24 56.5t57 24.5q17 0 52 -18t44 -18q12 0 19 10t6 21h59
q-2 -28 -22.5 -54.5t-54.5 -26.5q-19 0 -57 19q-32 19 -45 19q-24 0 -24 -33z" />
    <glyph glyph-name="Odieresis" unicode="&#xd6;" horiz-adv-x="446" 
d="M223 764q41 0 72.5 -16.5t51 -47.5t32.5 -66.5t19 -83.5t8 -86t2 -87q0 -37 -1 -66.5t-5 -71.5t-11.5 -74t-21.5 -66.5t-33 -57t-48 -37t-65 -14.5q-59 0 -98 34t-57 95.5t-24 120.5t-6 137q0 64 3.5 114.5t15.5 103.5t31.5 88.5t54 58t80.5 22.5zM223 696q-26 1 -46 -12
t-31.5 -40t-19.5 -55t-11 -69.5t-4 -71.5t-1 -71q0 -50 1.5 -85t7.5 -83.5t17.5 -78t33.5 -51t53 -21.5t53 21.5t33.5 51t17.5 78t7.5 83.5t1.5 85t-1.5 85t-7.5 83.5t-17.5 78t-33.5 51t-53 21.5zM107 874q0 19 13.5 32.5t32.5 13.5t32.5 -13.5t13.5 -32.5t-13.5 -32.5
t-32.5 -13.5t-32.5 13.5t-13.5 32.5zM247 874q0 19 13.5 32.5t32.5 13.5t32.5 -13.5t13.5 -32.5t-13.5 -32.5t-32.5 -13.5t-32.5 13.5t-13.5 32.5z" />
    <glyph glyph-name="multiply" unicode="&#xd7;" horiz-adv-x="444" 
d="M222 220l-164 -164l-37 35l165 165l-165 165l37 36l164 -165l165 165l37 -35l-166 -166l166 -166l-37 -36z" />
    <glyph glyph-name="Oslash" unicode="&#xd8;" horiz-adv-x="446" 
d="M101 58l-32 -68l-45 22l49 101q-35 104 -35 270q0 110 13.5 186.5t39.5 118t57.5 59t72.5 17.5q83 0 125 -67l32 67l43 -22l-47 -100q34 -102 34 -265q0 -387 -182 -387q-82 0 -125 68zM324 548l-184 -419q25 -71 83 -71q59 0 86 71.5t27 247.5q0 87 -8 171h-4zM121 204
l188 425q-30 67 -86 67q-21 0 -34.5 -4.5t-30 -22.5t-26 -51t-16 -94t-6.5 -147q0 -69 9 -173h2z" />
    <glyph glyph-name="Ugrave" unicode="&#xd9;" horiz-adv-x="430" 
d="M373 754v-515q0 -49 -2 -80.5t-11 -66.5t-25.5 -55t-46.5 -33.5t-73 -13.5q-44 0 -74.5 14t-46.5 34t-24.5 56t-10.5 66t-2 79v515h70v-511q0 -104 15.5 -144.5t72.5 -40.5q56 0 72 40.5t16 144.5v511h70zM144 961l109 -135l-32 -30l-130 117z" />
    <glyph glyph-name="Uacute" unicode="&#xda;" horiz-adv-x="430" 
d="M373 754v-515q0 -49 -2 -80.5t-11 -66.5t-25.5 -55t-46.5 -33.5t-73 -13.5q-44 0 -74.5 14t-46.5 34t-24.5 56t-10.5 66t-2 79v515h70v-511q0 -104 15.5 -144.5t72.5 -40.5q56 0 72 40.5t16 144.5v511h70zM177 826l109 135l53 -48l-130 -117z" />
    <glyph glyph-name="Ucircumflex" unicode="&#xdb;" horiz-adv-x="430" 
d="M373 754v-515q0 -49 -2 -80.5t-11 -66.5t-25.5 -55t-46.5 -33.5t-73 -13.5q-44 0 -74.5 14t-46.5 34t-24.5 56t-10.5 66t-2 79v515h70v-511q0 -104 15.5 -144.5t72.5 -40.5q56 0 72 40.5t16 144.5v511h70zM213 954l127 -122l-37 -36l-90 86l-89 -86l-34 36z" />
    <glyph glyph-name="Udieresis" unicode="&#xdc;" horiz-adv-x="430" 
d="M373 754v-515q0 -49 -2 -80.5t-11 -66.5t-25.5 -55t-46.5 -33.5t-73 -13.5q-44 0 -74.5 14t-46.5 34t-24.5 56t-10.5 66t-2 79v515h70v-511q0 -104 15.5 -144.5t72.5 -40.5q56 0 72 40.5t16 144.5v511h70zM99 874q0 19 13.5 32.5t32.5 13.5t32.5 -13.5t13.5 -32.5
t-13.5 -32.5t-32.5 -13.5t-32.5 13.5t-13.5 32.5zM239 874q0 19 13.5 32.5t32.5 13.5t32.5 -13.5t13.5 -32.5t-13.5 -32.5t-32.5 -13.5t-32.5 13.5t-13.5 32.5z" />
    <glyph glyph-name="Yacute" unicode="&#xdd;" horiz-adv-x="392" 
d="M373 754l-138 -424v-330h-70v330l-146 424h75l75 -254q4 -13 13.5 -47.5t15.5 -53.5h4q19 94 22 105l74 250h75zM158 826l109 135l53 -48l-130 -117z" />
    <glyph glyph-name="Thorn" unicode="&#xde;" horiz-adv-x="363" 
d="M130 0h-70v754h70v-160q39 0 64 -2.5t56 -13t49 -31t30.5 -58t12.5 -91.5q-4 -113 -45.5 -155t-148.5 -42h-18v-201zM130 530v-265h27q70 0 90.5 27.5t22.5 105.5q0 78 -26 105t-100 27h-14z" />
    <glyph glyph-name="germandbls" unicode="&#xdf;" horiz-adv-x="368" 
d="M181 452h-12v61h7q50 0 68 24t18 83q0 127 -75 127q-42 0 -54.5 -35.5t-12.5 -105.5v-606h-65v452h-54v61h54v85q0 37 1.5 61t9 55t21 49.5t39.5 31.5t62 13q74 0 107.5 -47t33.5 -124q0 -128 -74 -155q20 -7 35.5 -22t24 -38.5t14 -42t7 -49.5t2 -44.5t0.5 -41.5
q0 -41 -2 -70.5t-11.5 -64.5t-25 -57t-45.5 -37t-71 -15h-14v61h8q35 0 52.5 11t29.5 55.5t12 132.5q0 117 -19.5 153.5t-70.5 38.5z" />
    <glyph glyph-name="agrave" unicode="&#xe0;" horiz-adv-x="349" 
d="M245 265q0 47 -2.5 79.5t-9.5 63t-22 45.5t-38 15q-26 0 -42 -17.5t-23 -51.5t-9 -62.5t-2 -69.5q0 -61 4 -104t10 -66t17 -35t19.5 -14.5t22.5 -2.5q46 0 60.5 47t14.5 173zM304 513v-513h-65v40h-2q-31 -48 -85 -48q-44 0 -69 20.5t-39 80t-14 169.5q0 36 1 60t4.5 58
t12 55.5t22 43t36 32t52.5 10.5q48 0 79 -43h2v35h65zM124 750l109 -135l-32 -30l-130 117z" />
    <glyph glyph-name="aacute" unicode="&#xe1;" horiz-adv-x="349" 
d="M245 265q0 47 -2.5 79.5t-9.5 63t-22 45.5t-38 15q-26 0 -42 -17.5t-23 -51.5t-9 -62.5t-2 -69.5q0 -61 4 -104t10 -66t17 -35t19.5 -14.5t22.5 -2.5q46 0 60.5 47t14.5 173zM304 513v-513h-65v40h-2q-31 -48 -85 -48q-44 0 -69 20.5t-39 80t-14 169.5q0 36 1 60t4.5 58
t12 55.5t22 43t36 32t52.5 10.5q48 0 79 -43h2v35h65zM127 615l109 135l53 -48l-130 -117z" />
    <glyph glyph-name="acircumflex" unicode="&#xe2;" horiz-adv-x="349" 
d="M245 265q0 47 -2.5 79.5t-9.5 63t-22 45.5t-38 15q-26 0 -42 -17.5t-23 -51.5t-9 -62.5t-2 -69.5q0 -61 4 -104t10 -66t17 -35t19.5 -14.5t22.5 -2.5q46 0 60.5 47t14.5 173zM304 513v-513h-65v40h-2q-31 -48 -85 -48q-44 0 -69 20.5t-39 80t-14 169.5q0 36 1 60t4.5 58
t12 55.5t22 43t36 32t52.5 10.5q48 0 79 -43h2v35h65zM173 743l127 -122l-37 -36l-90 86l-89 -86l-34 36z" />
    <glyph glyph-name="atilde" unicode="&#xe3;" horiz-adv-x="349" 
d="M245 265q0 47 -2.5 79.5t-9.5 63t-22 45.5t-38 15q-26 0 -42 -17.5t-23 -51.5t-9 -62.5t-2 -69.5q0 -61 4 -104t10 -66t17 -35t19.5 -14.5t22.5 -2.5q46 0 60.5 47t14.5 173zM304 513v-513h-65v40h-2q-31 -48 -85 -48q-44 0 -69 20.5t-39 80t-14 169.5q0 36 1 60t4.5 58
t12 55.5t22 43t36 32t52.5 10.5q48 0 79 -43h2v35h65zM103 622h-58q2 32 24 56.5t57 24.5q17 0 52 -18t44 -18q12 0 19 10t6 21h59q-2 -28 -22.5 -54.5t-54.5 -26.5q-19 0 -57 19q-32 19 -45 19q-24 0 -24 -33z" />
    <glyph glyph-name="adieresis" unicode="&#xe4;" horiz-adv-x="349" 
d="M245 265q0 47 -2.5 79.5t-9.5 63t-22 45.5t-38 15q-26 0 -42 -17.5t-23 -51.5t-9 -62.5t-2 -69.5q0 -61 4 -104t10 -66t17 -35t19.5 -14.5t22.5 -2.5q46 0 60.5 47t14.5 173zM304 513v-513h-65v40h-2q-31 -48 -85 -48q-44 0 -69 20.5t-39 80t-14 169.5q0 36 1 60t4.5 58
t12 55.5t22 43t36 32t52.5 10.5q48 0 79 -43h2v35h65zM59 663q0 19 13.5 32.5t32.5 13.5t32.5 -13.5t13.5 -32.5t-13.5 -32.5t-32.5 -13.5t-32.5 13.5t-13.5 32.5zM199 663q0 19 13.5 32.5t32.5 13.5t32.5 -13.5t13.5 -32.5t-13.5 -32.5t-32.5 -13.5t-32.5 13.5t-13.5 32.5z
" />
    <glyph glyph-name="aring" unicode="&#xe5;" horiz-adv-x="349" 
d="M245 265q0 47 -2.5 79.5t-9.5 63t-22 45.5t-38 15q-26 0 -42 -17.5t-23 -51.5t-9 -62.5t-2 -69.5q0 -61 4 -104t10 -66t17 -35t19.5 -14.5t22.5 -2.5q46 0 60.5 47t14.5 173zM304 513v-513h-65v40h-2q-31 -48 -85 -48q-44 0 -69 20.5t-39 80t-14 169.5q0 36 1 60t4.5 58
t12 55.5t22 43t36 32t52.5 10.5q48 0 79 -43h2v35h65zM176 769q38 0 64 -26.5t26 -63.5q0 -38 -26.5 -64.5t-63.5 -26.5q-38 0 -64.5 27t-26.5 64t26.5 63.5t64.5 26.5zM176 724q-19 0 -32.5 -13t-13.5 -32t13.5 -32.5t32.5 -13.5t32 13.5t13 32.5t-13 32t-32 13z" />
    <glyph glyph-name="ae" unicode="&#xe6;" horiz-adv-x="566" 
d="M317 298h153v9q0 153 -73 153q-23 0 -40 -18t-25 -46t-11.5 -52.5t-3.5 -45.5zM170 53q44 0 65 33t21 78q0 50 -19 87.5t-66 37.5q-77 0 -77 -118q0 -48 17 -83t59 -35zM536 243h-220v-15q0 -25 3 -50t10.5 -56t26 -50t44.5 -19q56 0 64 106l1 15h67q-1 -44 -11.5 -82.5
t-40.5 -69t-74 -30.5q-51 0 -78 24t-42 69h-2q-14 -43 -48 -68t-76 -25q-68 0 -99 54.5t-31 127.5q0 70 31.5 119t97.5 49q64 0 94 -42h2v13q0 66 -22 106.5t-83 40.5q-35 0 -89 -40v71q41 30 91 30q99 0 132 -96h2q13 43 42.5 69.5t68.5 26.5q42 0 71.5 -25t43 -66
t19 -78.5t5.5 -77.5v-31z" />
    <glyph glyph-name="ccedilla" unicode="&#xe7;" horiz-adv-x="278" 
d="M251 501v-75q-32 34 -62 34q-29 0 -49.5 -22.5t-28.5 -59t-11 -65t-3 -58.5q0 -25 3.5 -54t11.5 -65t27 -59.5t46 -23.5q34 0 64 46h2v-81q-31 -26 -74 -26q-42 0 -72.5 26.5t-45.5 68.5t-22 81.5t-7 77.5q0 34 3 66.5t12.5 72t25 68.5t44 48.5t65.5 19.5q39 0 71 -20z
M202 -70l-95 -151l-41 23l83 157z" />
    <glyph glyph-name="egrave" unicode="&#xe8;" horiz-adv-x="343" 
d="M98 298h149l-1 9q-1 21 -1.5 29t-3 31.5t-7 35.5t-12 27.5t-20 22.5t-28.5 7q-22 0 -38 -18.5t-23.5 -46t-11 -52t-3.5 -45.5zM313 243h-216v-15q0 -25 3 -50t10.5 -55.5t24.5 -50t42 -19.5q20 0 34 12.5t20 33t8.5 38.5t2.5 37h67q-1 -44 -11.5 -82.5t-40.5 -69
t-74 -30.5q-153 0 -153 263q0 42 5.5 82t19.5 84.5t44.5 72t74.5 27.5q42 0 71.5 -25t43 -66t19 -78.5t5.5 -77.5v-31zM121 750l109 -135l-32 -30l-130 117z" />
    <glyph glyph-name="eacute" unicode="&#xe9;" horiz-adv-x="343" 
d="M98 298h149l-1 9q-1 21 -1.5 29t-3 31.5t-7 35.5t-12 27.5t-20 22.5t-28.5 7q-22 0 -38 -18.5t-23.5 -46t-11 -52t-3.5 -45.5zM313 243h-216v-15q0 -25 3 -50t10.5 -55.5t24.5 -50t42 -19.5q20 0 34 12.5t20 33t8.5 38.5t2.5 37h67q-1 -44 -11.5 -82.5t-40.5 -69
t-74 -30.5q-153 0 -153 263q0 42 5.5 82t19.5 84.5t44.5 72t74.5 27.5q42 0 71.5 -25t43 -66t19 -78.5t5.5 -77.5v-31zM124 615l109 135l53 -48l-130 -117z" />
    <glyph glyph-name="ecircumflex" unicode="&#xea;" horiz-adv-x="343" 
d="M98 298h149l-1 9q-1 21 -1.5 29t-3 31.5t-7 35.5t-12 27.5t-20 22.5t-28.5 7q-22 0 -38 -18.5t-23.5 -46t-11 -52t-3.5 -45.5zM313 243h-216v-15q0 -25 3 -50t10.5 -55.5t24.5 -50t42 -19.5q20 0 34 12.5t20 33t8.5 38.5t2.5 37h67q-1 -44 -11.5 -82.5t-40.5 -69
t-74 -30.5q-153 0 -153 263q0 42 5.5 82t19.5 84.5t44.5 72t74.5 27.5q42 0 71.5 -25t43 -66t19 -78.5t5.5 -77.5v-31zM170 743l127 -122l-37 -36l-90 86l-89 -86l-34 36z" />
    <glyph glyph-name="edieresis" unicode="&#xeb;" horiz-adv-x="343" 
d="M98 298h149l-1 9q-1 21 -1.5 29t-3 31.5t-7 35.5t-12 27.5t-20 22.5t-28.5 7q-22 0 -38 -18.5t-23.5 -46t-11 -52t-3.5 -45.5zM313 243h-216v-15q0 -25 3 -50t10.5 -55.5t24.5 -50t42 -19.5q20 0 34 12.5t20 33t8.5 38.5t2.5 37h67q-1 -44 -11.5 -82.5t-40.5 -69
t-74 -30.5q-153 0 -153 263q0 42 5.5 82t19.5 84.5t44.5 72t74.5 27.5q42 0 71.5 -25t43 -66t19 -78.5t5.5 -77.5v-31zM56 663q0 19 13.5 32.5t32.5 13.5t32.5 -13.5t13.5 -32.5t-13.5 -32.5t-32.5 -13.5t-32.5 13.5t-13.5 32.5zM196 663q0 19 13.5 32.5t32.5 13.5
t32.5 -13.5t13.5 -32.5t-13.5 -32.5t-32.5 -13.5t-32.5 13.5t-13.5 32.5z" />
    <glyph glyph-name="igrave" unicode="&#xec;" horiz-adv-x="155" 
d="M110 513v-513h-65v513h65zM37 750l109 -135l-32 -30l-130 117z" />
    <glyph glyph-name="iacute" unicode="&#xed;" horiz-adv-x="155" 
d="M110 513v-513h-65v513h65zM10 615l109 135l53 -48l-130 -117z" />
    <glyph glyph-name="icircumflex" unicode="&#xee;" horiz-adv-x="155" 
d="M110 513v-513h-65v513h65zM76 743l127 -122l-37 -36l-90 86l-89 -86l-34 36z" />
    <glyph glyph-name="idieresis" unicode="&#xef;" horiz-adv-x="155" 
d="M110 513v-513h-65v513h65zM-38 663q0 19 13.5 32.5t32.5 13.5t32.5 -13.5t13.5 -32.5t-13.5 -32.5t-32.5 -13.5t-32.5 13.5t-13.5 32.5zM102 663q0 19 13.5 32.5t32.5 13.5t32.5 -13.5t13.5 -32.5t-13.5 -32.5t-32.5 -13.5t-32.5 13.5t-13.5 32.5z" />
    <glyph glyph-name="eth" unicode="&#xf0;" horiz-adv-x="354" 
d="M257 257q0 45 -2 73.5t-9 63.5t-24.5 52.5t-44.5 17.5q-80 0 -80 -207q0 -204 80 -204q43 0 59.5 50.5t20.5 153.5zM92 578l-28 40l69 42q-39 58 -99 118l52 21q57 -52 97 -108l69 42l28 -39l-70 -43q117 -180 114 -394q-8 -127 -29 -179q-34 -86 -118 -86
q-147 0 -147 265q0 39 6 78t21 81.5t46 69t75 26.5q19 0 43 -11q-29 67 -62 118z" />
    <glyph glyph-name="ntilde" unicode="&#xf1;" horiz-adv-x="355" 
d="M110 513v-41q42 49 101 49q32 0 53.5 -13.5t30.5 -38.5t12 -47.5t3 -54.5v-367h-65v360q0 55 -10.5 81.5t-47.5 26.5q-26 0 -43 -12.5t-23.5 -36t-8.5 -41.5t-2 -45v-333h-65v513h65zM106 622h-58q2 32 24 56.5t57 24.5q17 0 52 -18t44 -18q12 0 19 10t6 21h59
q-2 -28 -22.5 -54.5t-54.5 -26.5q-19 0 -57 19q-32 19 -45 19q-24 0 -24 -33z" />
    <glyph glyph-name="ograve" unicode="&#xf2;" horiz-adv-x="355" 
d="M177 521q147 0 147 -264q0 -265 -147 -265t-147 265q0 264 147 264zM177 460q-80 0 -80 -203q0 -204 80 -204t80 204q0 203 -80 203zM117 750l109 -135l-32 -30l-130 117z" />
    <glyph glyph-name="oacute" unicode="&#xf3;" horiz-adv-x="355" 
d="M177 521q147 0 147 -264q0 -265 -147 -265t-147 265q0 264 147 264zM177 460q-80 0 -80 -203q0 -204 80 -204t80 204q0 203 -80 203zM130 615l109 135l53 -48l-130 -117z" />
    <glyph glyph-name="ocircumflex" unicode="&#xf4;" horiz-adv-x="355" 
d="M177 521q147 0 147 -264q0 -265 -147 -265t-147 265q0 264 147 264zM177 460q-80 0 -80 -203q0 -204 80 -204t80 204q0 203 -80 203zM176 743l127 -122l-37 -36l-90 86l-89 -86l-34 36z" />
    <glyph glyph-name="otilde" unicode="&#xf5;" horiz-adv-x="355" 
d="M177 521q147 0 147 -264q0 -265 -147 -265t-147 265q0 264 147 264zM177 460q-80 0 -80 -203q0 -204 80 -204t80 204q0 203 -80 203zM106 622h-58q2 32 24 56.5t57 24.5q17 0 52 -18t44 -18q12 0 19 10t6 21h59q-2 -28 -22.5 -54.5t-54.5 -26.5q-19 0 -57 19
q-32 19 -45 19q-24 0 -24 -33z" />
    <glyph glyph-name="odieresis" unicode="&#xf6;" horiz-adv-x="355" 
d="M177 521q147 0 147 -264q0 -265 -147 -265t-147 265q0 264 147 264zM177 460q-80 0 -80 -203q0 -204 80 -204t80 204q0 203 -80 203zM62 663q0 19 13.5 32.5t32.5 13.5t32.5 -13.5t13.5 -32.5t-13.5 -32.5t-32.5 -13.5t-32.5 13.5t-13.5 32.5zM202 663q0 19 13.5 32.5
t32.5 13.5t32.5 -13.5t13.5 -32.5t-13.5 -32.5t-32.5 -13.5t-32.5 13.5t-13.5 32.5z" />
    <glyph glyph-name="divide" unicode="&#xf7;" horiz-adv-x="444" 
d="M21 282h403v-51h-403v51zM223 502q21 0 36 -15t15 -36t-15 -36t-36 -15t-36 15t-15 36t15 36t36 15zM223 113q21 0 36 -15t15 -36t-15 -36t-36 -15t-36 15t-15 36t15 36t36 15z" />
    <glyph glyph-name="oslash" unicode="&#xf8;" horiz-adv-x="355" 
d="M249 349l-132 -246q20 -50 63 -50q77 0 77 203q0 14 -1 29.5t-2.5 34.5t-2.5 29h-2zM104 162l132 250q-7 20 -22 34t-34 14q-83 0 -83 -204q0 -16 5 -94h2zM50 -4l-36 21l41 71q-25 71 -25 168q0 265 151 265q59 0 95 -49l29 49l35 -22l-40 -70q24 -65 24 -173
q0 -264 -143 -264q-65 0 -104 51z" />
    <glyph glyph-name="ugrave" unicode="&#xf9;" horiz-adv-x="350" 
d="M41 513h65v-322q0 -32 2 -52t8 -42t20.5 -33t37.5 -11q24 0 38.5 10.5t21 33.5t8.5 42t2 52v322h65v-377q0 -67 -33.5 -105.5t-100.5 -38.5q-66 0 -100 38.5t-34 105.5v377zM114 750l109 -135l-32 -30l-130 117z" />
    <glyph glyph-name="uacute" unicode="&#xfa;" horiz-adv-x="350" 
d="M41 513h65v-322q0 -32 2 -52t8 -42t20.5 -33t37.5 -11q24 0 38.5 10.5t21 33.5t8.5 42t2 52v322h65v-377q0 -67 -33.5 -105.5t-100.5 -38.5q-66 0 -100 38.5t-34 105.5v377zM127 615l109 135l53 -48l-130 -117z" />
    <glyph glyph-name="ucircumflex" unicode="&#xfb;" horiz-adv-x="350" 
d="M41 513h65v-322q0 -32 2 -52t8 -42t20.5 -33t37.5 -11q24 0 38.5 10.5t21 33.5t8.5 42t2 52v322h65v-377q0 -67 -33.5 -105.5t-100.5 -38.5q-66 0 -100 38.5t-34 105.5v377zM173 743l127 -122l-37 -36l-90 86l-89 -86l-34 36z" />
    <glyph glyph-name="udieresis" unicode="&#xfc;" horiz-adv-x="350" 
d="M41 513h65v-322q0 -32 2 -52t8 -42t20.5 -33t37.5 -11q24 0 38.5 10.5t21 33.5t8.5 42t2 52v322h65v-377q0 -67 -33.5 -105.5t-100.5 -38.5q-66 0 -100 38.5t-34 105.5v377zM59 663q0 19 13.5 32.5t32.5 13.5t32.5 -13.5t13.5 -32.5t-13.5 -32.5t-32.5 -13.5t-32.5 13.5
t-13.5 32.5zM199 663q0 19 13.5 32.5t32.5 13.5t32.5 -13.5t13.5 -32.5t-13.5 -32.5t-32.5 -13.5t-32.5 13.5t-13.5 32.5z" />
    <glyph glyph-name="yacute" unicode="&#xfd;" horiz-adv-x="332" 
d="M324 513l-177 -709h-68l51 210l-122 499h66l86 -414h3l27 132l66 282h68zM128 615l109 135l53 -48l-130 -117z" />
    <glyph glyph-name="thorn" unicode="&#xfe;" horiz-adv-x="349" 
d="M110 40v-236h-65v916h65v-242h2q31 43 80 43q28 0 50 -10t35.5 -29.5t22 -41.5t12.5 -54.5t5.5 -59.5t1.5 -64q0 -67 -4 -111t-16.5 -83t-37.5 -57.5t-64 -18.5q-54 0 -85 48h-2zM179 45q32 0 48 26.5t20.5 70t4.5 125.5q0 39 -1.5 65.5t-8 62t-23.5 54.5t-43 19
q-24 0 -40 -17t-22 -50.5t-8 -61t-2 -68.5q0 -51 2 -83t8.5 -69t23 -55.5t41.5 -18.5z" />
    <glyph glyph-name="ydieresis" unicode="&#xff;" horiz-adv-x="332" 
d="M324 513l-177 -709h-68l51 210l-122 499h66l86 -414h3l27 132l66 282h68zM50 663q0 19 13.5 32.5t32.5 13.5t32.5 -13.5t13.5 -32.5t-13.5 -32.5t-32.5 -13.5t-32.5 13.5t-13.5 32.5zM190 663q0 19 13.5 32.5t32.5 13.5t32.5 -13.5t13.5 -32.5t-13.5 -32.5t-32.5 -13.5
t-32.5 13.5t-13.5 32.5z" />
    <glyph glyph-name="dotlessi" unicode="&#x131;" horiz-adv-x="155" 
d="M110 513v-513h-65v513h65z" />
    <glyph glyph-name="Lslash" unicode="&#x141;" horiz-adv-x="294" 
d="M60 0v325l-54 -37v62l54 37v367h70v-320l90 61v-60l-90 -62v-309h164v-64h-234z" />
    <glyph glyph-name="lslash" unicode="&#x142;" horiz-adv-x="155" 
d="M45 0v411l-57 -44v54l57 44v335h65v-285l57 43v-52l-57 -44v-462h-65z" />
    <glyph glyph-name="OE" unicode="&#x152;" horiz-adv-x="613" 
d="M397 690v-266h162v-64h-162v-296h167v-64h-233v78h-2q-14 -39 -45 -63.5t-71 -24.5q-175 0 -175 395q0 379 179 379q35 0 65.5 -21.5t46.5 -55.5h2v67h233v-64h-167zM110 358q0 -145 24 -222.5t85 -77.5q67 0 88.5 64.5t21.5 235.5q0 76 -2 123.5t-8.5 93t-18.5 69.5
t-32 38t-50 14q-108 0 -108 -338z" />
    <glyph glyph-name="oe" unicode="&#x153;" horiz-adv-x="560" 
d="M312 298h152l-1 9q-1 21 -1.5 29t-3 31.5t-7 35.5t-12 27.5t-20 22.5t-28.5 7q-30 0 -49 -32.5t-24.5 -66t-5.5 -63.5zM174 460q-20 1 -35 -14t-23 -37t-12.5 -53.5t-5.5 -53t-1 -44.5q0 -24 2 -49.5t8.5 -64.5t24 -64t42.5 -27q24 0 41 23.5t24 61t9.5 66.5t2.5 55
t-2 52.5t-9 64t-24 61t-42 23.5zM530 243h-219v-15q0 -25 3 -50t10.5 -56t25.5 -50t44 -19q56 0 64 106l1 15h67q-1 -44 -11.5 -82.5t-40.5 -69t-74 -30.5t-76 29t-44 79h-2q-9 -45 -37.5 -76.5t-71.5 -31.5q-69 0 -104 71t-35 194q0 41 5 80t19 84t44 72.5t74 27.5
q40 0 70 -33t36 -75h2q8 43 39.5 75.5t71.5 32.5q42 0 71.5 -25t43 -66t19 -78.5t5.5 -77.5v-31z" />
    <glyph glyph-name="Scaron" unicode="&#x160;" horiz-adv-x="389" 
d="M322 724v-89q-54 61 -111 61q-50 0 -79.5 -35.5t-29.5 -86.5q0 -31 9.5 -56.5t32.5 -48t38 -34t49 -34.5q31 -21 48.5 -36t38.5 -39.5t31 -54.5t10 -67q0 -87 -52 -150.5t-137 -63.5q-69 0 -119 38v91q57 -61 122 -61q53 0 84 39.5t30 93.5q0 29 -8.5 53t-27.5 44.5
t-35 33t-44 32.5q-9 6 -13 9q-30 21 -48 36t-39.5 39.5t-31.5 55.5t-10 70q0 81 47 140.5t126 59.5q61 0 119 -40zM320 918l-127 -122l-123 122l34 36l89 -86l90 86z" />
    <glyph glyph-name="scaron" unicode="&#x161;" horiz-adv-x="278" 
d="M241 488v-80h-2q-37 52 -85 52q-29 0 -46.5 -19.5t-17.5 -48.5q0 -8 1 -15.5t5 -15t6.5 -13t9 -13t9.5 -11t12.5 -12t12 -11t14 -11.5t13.5 -11q40 -33 61.5 -64t21.5 -76q0 -63 -38.5 -105t-101.5 -42q-49 0 -93 35v76q48 -50 91 -50q33 0 54 22.5t21 55.5q0 24 -14 48
t-26.5 36t-42.5 38q-26 23 -41 39t-28.5 42.5t-13.5 55.5q0 58 35.5 94.5t92.5 36.5q47 0 90 -33zM274 707l-127 -122l-123 122l34 36l89 -86l90 86z" />
    <glyph glyph-name="Ydieresis" unicode="&#x178;" horiz-adv-x="392" 
d="M373 754l-138 -424v-330h-70v330l-146 424h75l75 -254q4 -13 13.5 -47.5t15.5 -53.5h4q19 94 22 105l74 250h75zM86 874q0 19 13.5 32.5t32.5 13.5t32.5 -13.5t13.5 -32.5t-13.5 -32.5t-32.5 -13.5t-32.5 13.5t-13.5 32.5zM226 874q0 19 13.5 32.5t32.5 13.5t32.5 -13.5
t13.5 -32.5t-13.5 -32.5t-32.5 -13.5t-32.5 13.5t-13.5 32.5z" />
    <glyph glyph-name="Zcaron" unicode="&#x17d;" horiz-adv-x="335" 
d="M316 754l-211 -690h190v-64h-276l209 690h-189v64h277zM301 918l-127 -122l-123 122l34 36l89 -86l90 86z" />
    <glyph glyph-name="zcaron" unicode="&#x17e;" horiz-adv-x="331" 
d="M282 60v-60h-267l203 453h-175v60h273l-208 -453h174zM301 707l-127 -122l-123 122l34 36l89 -86l90 86z" />
    <glyph glyph-name="florin" unicode="&#x192;" 
d="M355 487h-88l-89 -505q-6 -33 -12 -54t-19 -44t-34.5 -34t-53.5 -11q-26 0 -59 11l12 69q22 -20 44 -20q41 0 55 80l89 508h-61l9 52h62l27 158q5 33 11.5 54t19 44t35 34t54.5 11q33 0 58 -11l-12 -69q-23 20 -43 20q-25 0 -37 -19.5t-19 -60.5l-28 -161h88z" />
    <glyph glyph-name="circumflex" unicode="&#x2c6;" horiz-adv-x="280" 
d="M138 743l127 -122l-37 -36l-90 86l-89 -86l-34 36z" />
    <glyph glyph-name="caron" unicode="&#x2c7;" horiz-adv-x="280" 
d="M265 707l-127 -122l-123 122l34 36l89 -86l90 86z" />
    <glyph glyph-name="uni02C9" unicode="&#x2c9;" horiz-adv-x="280" 
d="M13 635v53h255v-53h-255z" />
    <glyph glyph-name="breve" unicode="&#x2d8;" horiz-adv-x="280" 
d="M226 698h50q-4 -51 -44 -78t-91 -27t-91 27t-45 78h51q14 -50 85 -50t85 50z" />
    <glyph glyph-name="dotaccent" unicode="&#x2d9;" horiz-adv-x="280" 
d="M94 663q0 19 13.5 32.5t32.5 13.5t32.5 -13.5t13.5 -32.5t-13.5 -32.5t-32.5 -13.5t-32.5 13.5t-13.5 32.5z" />
    <glyph glyph-name="ring" unicode="&#x2da;" horiz-adv-x="280" 
d="M141 769q37 0 63.5 -26.5t26.5 -63.5q0 -38 -26.5 -64.5t-63.5 -26.5t-64 27t-27 64t26.5 63.5t64.5 26.5zM141 724q-19 0 -32.5 -13t-13.5 -32t13.5 -32.5t32.5 -13.5t32 13.5t13 32.5t-13 32t-32 13z" />
    <glyph glyph-name="ogonek" unicode="&#x2db;" horiz-adv-x="280" 
d="M124 0h51q-49 -44 -49 -82q0 -35 43 -35q19 0 44 9v-54q-24 -10 -53 -10q-38 0 -64 19.5t-26 56.5q0 46 54 96z" />
    <glyph glyph-name="tilde" unicode="&#x2dc;" horiz-adv-x="280" 
d="M68 622h-58q2 32 24 56.5t57 24.5q17 0 52 -18t44 -18q12 0 19 10t6 21h59q-2 -28 -22.5 -54.5t-54.5 -26.5q-19 0 -57 19q-32 19 -45 19q-24 0 -24 -33z" />
    <glyph glyph-name="hungarumlaut" unicode="&#x2dd;" horiz-adv-x="280" 
d="M78 742l64 -24l-79 -133l-42 15zM195 742l64 -24l-80 -133l-41 15z" />
    <glyph glyph-name="uni03A9" unicode="&#x3a9;" horiz-adv-x="530" 
d="M150 58v4q-45 62 -73.5 151t-28.5 194q0 162 62 256t159 94q96 0 154 -96.5t58 -248.5q0 -108 -30 -200t-73 -150v-4h112v-58h-179v43q45 51 75.5 146t30.5 206q-1 74 -15.5 139.5t-50 114t-85.5 48.5q-71 0 -113 -84t-42 -217q0 -105 32 -205.5t75 -147.5v-43h-180v58
h112z" />
    <glyph glyph-name="uni03BC" unicode="&#x3bc;" horiz-adv-x="350" 
d="M243 513h65v-367q0 -34 -2.5 -55.5t-11.5 -47t-30.5 -38.5t-54.5 -13q-59 0 -101 49v-237h-65v709h65v-333q0 -27 2 -45t8.5 -41.5t23.5 -36t43 -12.5q36 0 47 23t11 89v356z" />
    <glyph glyph-name="pi" unicode="&#x3c0;" horiz-adv-x="441" 
d="M415 495h-58v-352q0 -95 11 -143h-60q-13 32 -13 140v355h-131q-3 -118 -19.5 -268.5t-37.5 -226.5h-61q23 84 38 229.5t17 265.5q-51 0 -79 -10l-10 45q32 25 112 25h297z" />
    <glyph glyph-name="endash" unicode="&#x2013;" horiz-adv-x="500" 
d="M0 280v79h500v-79h-500z" />
    <glyph glyph-name="emdash" unicode="&#x2014;" horiz-adv-x="1000" 
d="M130 280v79h740v-79h-740z" />
    <glyph glyph-name="quoteleft" unicode="&#x2018;" horiz-adv-x="224" 
d="M186 741l-78 -233l-70 33l100 223z" />
    <glyph glyph-name="quoteright" unicode="&#x2019;" horiz-adv-x="224" 
d="M186 731l-100 -223l-48 23l78 233z" />
    <glyph glyph-name="quotesinglbase" unicode="&#x201a;" horiz-adv-x="224" 
d="M156 62l-100 -223l-48 23l78 233z" />
    <glyph glyph-name="quotedblleft" unicode="&#x201c;" horiz-adv-x="358" 
d="M171 541l100 223l49 -23l-78 -233zM38 541l100 223l48 -23l-78 -233z" />
    <glyph glyph-name="quotedblright" unicode="&#x201d;" horiz-adv-x="358" 
d="M86 508l-48 23l78 233l70 -33zM220 508l-48 23l78 233l70 -33z" />
    <glyph glyph-name="quotedblbase" unicode="&#x201e;" horiz-adv-x="358" 
d="M186 62l-100 -223l-48 23l78 233zM320 62l-100 -223l-48 23l78 233z" />
    <glyph glyph-name="dagger" unicode="&#x2020;" horiz-adv-x="415" 
d="M177 -137v633h-120v61h120v197h61v-197h120v-61h-120v-633h-61z" />
    <glyph glyph-name="daggerdbl" unicode="&#x2021;" horiz-adv-x="415" 
d="M177 466h-120v61h120v227h61v-227h120v-61h-120v-272h120v-61h-120v-270h-61v270h-120v61h120v272z" />
    <glyph glyph-name="bullet" unicode="&#x2022;" horiz-adv-x="415" 
d="M209 566q76 0 131.5 -55.5t55.5 -132.5q0 -76 -55.5 -132t-131.5 -56q-78 0 -133.5 56t-55.5 132q0 77 55.5 132.5t133.5 55.5z" />
    <glyph glyph-name="ellipsis" unicode="&#x2026;" horiz-adv-x="1000" 
d="M166 94q21 0 36 -15t15 -36t-15 -36t-36 -15t-36 15t-15 36t15 36t36 15zM500 94q21 0 36 -15t15 -36t-15 -36t-36 -15t-36 15t-15 36t15 36t36 15zM834 94q21 0 36 -15t15 -36t-15 -36t-36 -15t-36 15t-15 36t15 36t36 15z" />
    <glyph glyph-name="perthousand" unicode="&#x2030;" horiz-adv-x="759" 
d="M405 376q32 0 52 -18.5t28 -53t10 -59.5t2 -62t-2 -62t-10 -59.5t-28 -53t-52 -18.5t-52 18.5t-28 53t-10 59.5t-2 62t2 62t10 59.5t28 53t52 18.5zM405 338q-50 0 -50 -155t50 -155t50 155t-50 155zM642 376q32 0 52 -18.5t28 -53t10 -59.5t2 -62t-2 -62t-10 -59.5
t-28 -53t-52 -18.5t-52 18.5t-28 53t-10 59.5t-2 62t2 62t10 59.5t28 53t52 18.5zM642 338q-50 0 -50 -155t50 -155t50 155t-50 155zM117 378q-32 0 -52 18.5t-28 53t-10 59.5t-2 62t2 62t10 59.5t28 53t52 18.5t52 -18.5t28 -53t10 -59.5t2 -62t-2 -62t-10 -59.5t-28 -53
t-52 -18.5zM117 726q-50 0 -50 -155t50 -155t50 155t-50 155zM440 754l-326 -754h-34l328 754h32z" />
    <glyph glyph-name="guilsinglleft" unicode="&#x2039;" horiz-adv-x="249" 
d="M168 103l-123 213l123 219l43 -25l-107 -194l107 -189z" />
    <glyph glyph-name="guilsinglright" unicode="&#x203a;" horiz-adv-x="249" 
d="M81 535l123 -213l-123 -219l-43 25l107 194l-107 189z" />
    <glyph glyph-name="fraction" unicode="&#x2044;" horiz-adv-x="122" 
d="M245 754l-326 -754h-42l327 754h41z" />
    <glyph glyph-name="Euro" unicode="&#x20ac;" 
d="M380 732v-66q-32 35 -102 35q-122 0 -132 -226h198l-14 -54h-187q-1 -13 -1 -45q0 -7 0.5 -21.5t0.5 -20.5h165l-14 -53h-148q10 -230 131 -230q68 0 103 35v-67q-32 -28 -113 -28q-83 0 -129.5 69t-55.5 221h-60l14 53h41q-1 11 -1 42t1 45h-55l14 54h45q18 287 187 287
q78 0 112 -30z" />
    <glyph glyph-name="afii61289" unicode="&#x2113;" horiz-adv-x="384" 
d="M335 132l30 -27q-51 -110 -142 -110q-132 0 -132 210v17l-22.5 -22.5t-22.5 -23.5l-20 39q46 48 65 72v292q0 130 35 187.5t88 57.5q45 0 69.5 -42.5t24.5 -117.5q0 -185 -157 -383v-46q0 -187 83 -187q56 0 101 84zM151 579v-225q117 168 117 311q0 105 -54 105
q-27 0 -45 -46.5t-18 -144.5z" />
    <glyph glyph-name="trademark" unicode="&#x2122;" horiz-adv-x="722" 
d="M666 754v-421h-51v368h-2l-94 -368h-36l-93 368h-2v-368h-51v421h88l75 -297h2l78 297h86zM292 754v-51h-92v-370h-51v370h-92v51h235z" />
    <glyph glyph-name="Omega" unicode="&#x2126;" horiz-adv-x="530" 
d="M150 58v4q-45 62 -73.5 151t-28.5 194q0 162 62 256t159 94q96 0 154 -96.5t58 -248.5q0 -108 -30 -200t-73 -150v-4h112v-58h-179v43q45 51 75.5 146t30.5 206q-1 74 -15.5 139.5t-50 114t-85.5 48.5q-71 0 -113 -84t-42 -217q0 -105 32 -205.5t75 -147.5v-43h-180v58
h112z" />
    <glyph glyph-name="estimated" unicode="&#x212e;" horiz-adv-x="933" 
d="M896 366h-696q-6 0 -6 -4v-211q0 -11 9 -24q112 -115 264 -115q81 0 153 34.5t124 94.5h62q-59 -69 -148.5 -109.5t-191.5 -40.5q-178 0 -304 113t-126 273q0 161 126 274t304 113t304 -113t126 -274v-11zM738 394v211q0 16 -10 26q-113 110 -261 110q-151 0 -263 -114
q-10 -12 -10 -26v-207q0 -7 6 -7h533q5 0 5 7z" />
    <glyph glyph-name="partialdiff" unicode="&#x2202;" horiz-adv-x="428" 
d="M82 734l-21 54q56 54 128 54q83 0 141.5 -97t58.5 -301q0 -217 -53.5 -332.5t-151.5 -115.5q-69 0 -108 65.5t-39 173.5q0 124 51.5 201.5t120.5 77.5q42 0 72 -23t45 -52h1v36q0 134 -41.5 221t-103.5 87q-55 0 -100 -49zM190 55h1q52 0 87.5 86.5t42.5 216.5
q-11 41 -38 69.5t-65 28.5q-49 0 -83.5 -65t-34.5 -156q0 -86 24 -133t66 -47z" />
    <glyph glyph-name="Delta" unicode="&#x2206;" horiz-adv-x="492" 
d="M28 0v45l185 719h70l182 -718v-46h-437zM90 56h310l-107 420q-5 24 -23 90.5t-23 96.5h-4q-4 -28 -21 -92t-21 -85z" />
    <glyph glyph-name="product" unicode="&#x220f;" horiz-adv-x="539" 
d="M514 684h-77v-787h-62v787h-212v-787h-62v787h-77v63h490v-63z" />
    <glyph glyph-name="summation" unicode="&#x2211;" horiz-adv-x="432" 
d="M414 -103h-393v48l211 376l-201 377v49h367v-58h-285v-4l189 -352l-207 -367v-4h319v-65z" />
    <glyph glyph-name="minus" unicode="&#x2212;" horiz-adv-x="444" 
d="M424 282v-51h-403v51h403z" />
    <glyph glyph-name="uni2215" unicode="&#x2215;" horiz-adv-x="122" 
d="M245 754l-326 -754h-42l327 754h41z" />
    <glyph glyph-name="uni2219" unicode="&#x2219;" horiz-adv-x="208" 
d="M103 303q22 0 37 -15t15 -36t-15 -36t-37 -15q-21 0 -35.5 15t-14.5 36t14.5 36t35.5 15z" />
    <glyph glyph-name="radical" unicode="&#x221a;" horiz-adv-x="468" 
d="M459 890l-175 -1052h-55l-129 502l-59 -22l-12 43l114 43l97 -375q12 -61 15 -88l1 -1q5 49 11 84l145 866h47z" />
    <glyph glyph-name="infinity" unicode="&#x221e;" horiz-adv-x="671" 
d="M629 313v-1q0 -62 -39.5 -101t-93.5 -39q-40 0 -76.5 23.5t-83.5 78.5q-28 -32 -47.5 -50.5t-51 -35t-65.5 -16.5q-54 0 -92 39.5t-38 96.5q0 61 38 100t98 39q78 0 161 -102q54 59 81 77q39 25 82 25q56 0 91.5 -37t35.5 -97zM178 214h1q9 0 18 1.5t17.5 5.5t15.5 7.5
t16 11t14 11.5t14.5 14t13 13.5t13.5 14.5t12 14q-28 34 -42 49.5t-42 32.5t-57 17q-40 0 -63 -28.5t-22 -69.5q1 -40 26.5 -67t64.5 -27zM497 406h-1q-16 0 -32 -6t-32 -19t-25.5 -22.5t-25 -26.5t-19.5 -21q49 -55 76 -76t60 -21q39 0 62.5 28.5t23.5 65.5q0 46 -24 72
t-63 26z" />
    <glyph glyph-name="integral" unicode="&#x222b;" horiz-adv-x="310" 
d="M289 900l-12 -49q-14 8 -27 8q-25 0 -42 -27q-27 -42 -27 -191q0 -83 5 -269.5t5 -273.5q0 -154 -38 -218q-26 -50 -85 -50q-28 0 -49 14l11 51q24 -9 34 -9q23 0 39 28q25 40 25 184q0 87 -4.5 276.5t-4.5 272.5q0 164 44 223q33 41 82 41q24 0 44 -11z" />
    <glyph glyph-name="approxequal" unicode="&#x2248;" horiz-adv-x="449" 
d="M385 433l29 -21q-35 -89 -106 -89q-34 0 -92 36q-49 30 -75 30q-43 0 -77 -67l-31 21q39 89 113 89q12 0 23 -2t22 -7.5l17 -8.5t17.5 -10t12.5 -8q52 -30 74 -30q40 0 73 67zM385 287l29 -21q-35 -89 -106 -89q-35 0 -92 36q-51 31 -74 31q-44 0 -78 -68l-31 21
q39 89 113 89q14 0 29.5 -4.5t23.5 -8.5t23 -12.5t16 -9.5q51 -31 74 -31q40 0 73 67z" />
    <glyph glyph-name="notequal" unicode="&#x2260;" horiz-adv-x="449" 
d="M320 490l-35 -81h121v-45h-137l-53 -123h190v-44h-206l-41 -95l-35 14l35 81h-117v44h134l52 123h-186v45h202l41 96z" />
    <glyph glyph-name="lessequal" unicode="&#x2264;" horiz-adv-x="449" 
d="M404 128l-358 206v45l358 205v-55l-311 -171v-2l311 -172v-56zM406 43h-363v47h363v-47z" />
    <glyph glyph-name="greaterequal" unicode="&#x2265;" horiz-adv-x="449" 
d="M47 584l358 -205v-45l-358 -206v56l311 171v2l-311 172v55zM406 43h-363v47h363v-47z" />
    <glyph glyph-name="lozenge" unicode="&#x25ca;" horiz-adv-x="468" 
d="M422 373l-163 -406h-53l-160 406l163 407h54zM363 372l-112 284q-3 8 -6 19.5t-6 24t-4 16.5h-2q-7 -39 -15 -60l-113 -281l113 -287q9 -24 14 -58h4q6 36 14 57z" />
    </font>
</defs>
</svg>
